<svg width="182" height="432" viewBox="0 0 182 432" fill="none" xmlns="http://www.w3.org/2000/svg">
<mask id="mask0_5_2" style="mask-type:alpha" maskUnits="userSpaceOnUse" x="0" y="0" width="182" height="432">
<path d="M101.646 20.9598C101.964 19.7743 103.174 19.0685 104.36 19.3862L140.325 29.023C141.278 29.2784 141.944 30.1264 141.974 31.1045L145.403 155.469C145.43 156.172 145.105 156.84 144.558 157.278C144.004 157.713 143.277 157.861 142.598 157.671L94.7663 144.614C82.7342 141.33 85.5015 125.94 86.8228 118.542C89.9816 100.921 93.0371 86.2182 97.6921 71.7289C100.615 62.6135 106.709 43.6507 120.153 45.8019C130.088 48.1978 132.123 66.7462 132.521 72.3732C132.596 73.2776 132.649 74.2018 132.692 75.1319C133.065 83.7053 132.539 99.9879 124.905 112.683C123.448 115.109 118.122 123.134 110.933 124.521C108.409 125.004 105.997 124.486 103.952 123.02C101.179 121.032 99.2592 117.401 98.6667 113.044C97.774 106.443 98.5138 97.9793 100.747 89.2284C104.432 74.7369 110.835 73.173 114.316 73.5132C119.659 74.0436 124.28 79.9005 124.622 86.5685C124.997 93.9833 120.167 99.4459 111.684 101.182C110.485 101.427 109.311 100.649 109.066 99.4502C108.82 98.2512 109.598 97.0775 110.797 96.8321C119.328 95.0828 120.348 89.8015 120.199 86.7998C119.978 82.4653 116.972 78.2428 113.885 77.9394C110.431 77.5977 107.146 82.2635 105.061 90.3329C102.964 98.5449 102.258 106.4 103.082 112.459C103.496 115.557 104.8 118.156 106.557 119.417C107.615 120.181 108.777 120.424 110.109 120.162C113.631 119.483 117.956 115.646 121.114 110.397C128.152 98.7092 128.62 83.4072 128.269 75.329C128.23 74.4513 128.18 73.5795 128.112 72.7114C127.245 60.2796 123.704 51.2264 119.303 50.1586C109.792 48.6489 104.291 65.7792 101.946 73.0919C97.3689 87.3532 94.3506 101.886 91.2208 119.334C89.4655 129.088 88.8284 138.387 95.9647 140.334L140.915 152.61L137.583 32.8813L105.358 24.2468L102.776 33.8829C100.908 40.8858 96.5193 57.2663 91.6617 75.4273C85.6478 97.8714 78.9143 123.033 75.2967 136.598C74.979 137.784 73.7602 138.488 72.5828 138.172C71.3973 137.854 70.6936 136.636 71.0091 135.458C74.6268 121.893 81.3624 96.7232 87.3741 74.287C92.2398 56.1282 96.6268 39.7557 98.4866 32.7506L101.646 20.9598Z" fill="#F9F9F9"/>
<path d="M75.128 137.292C74.8104 138.477 73.5916 139.181 72.4061 138.863L36.441 129.226C35.4958 128.973 34.8222 128.123 34.7924 127.145L31.3628 2.78001C31.3364 2.07754 31.6614 1.40914 32.2079 0.971775C32.7623 0.536551 33.4868 0.395857 34.1677 0.578291L81.9997 13.6352C94.0318 16.9193 91.2645 32.3093 89.9432 39.7077C86.7844 57.3279 83.7289 72.0311 79.0739 86.5204C76.1506 95.6358 70.0565 114.599 56.6134 112.447C46.6784 110.052 44.643 91.5031 44.2448 85.8762C44.1695 84.9717 44.1167 84.0475 44.074 83.1175C43.7013 74.5441 44.2266 58.2614 51.8607 45.5663C53.3177 43.1408 58.6444 35.1158 65.8329 33.7281C68.3574 33.2455 70.7686 33.7628 72.8138 35.2295C75.5865 37.2172 77.5068 40.8482 78.0993 45.2051C78.992 51.8059 78.2522 60.2701 76.019 69.0209C72.3335 83.5124 65.9306 85.0763 62.4503 84.7361C57.1066 84.2057 52.486 78.3488 52.1436 71.6808C51.7695 64.2661 56.5985 58.8035 65.0822 57.0674C66.2812 56.8221 67.4549 57.6002 67.7003 58.7991C67.9456 59.9981 67.1675 61.1718 65.9686 61.4172C57.4384 63.1666 56.4182 68.4478 56.5668 71.4495C56.7876 75.7841 59.7942 80.0066 62.8808 80.3099C66.3349 80.6517 69.6198 75.9858 71.7048 67.9164C73.8021 59.7044 74.5076 51.8491 73.6842 45.7906C73.2696 42.6919 71.9656 40.0932 70.2086 38.8326C69.1513 38.0685 67.9887 37.8257 66.6567 38.0869C63.1352 38.7659 58.8102 42.6035 55.6522 47.8528C48.6144 59.5402 48.1458 74.8421 48.4967 82.9203C48.5362 83.798 48.5859 84.6699 48.6538 85.538C49.5208 97.9698 53.0617 107.023 57.4631 108.091C66.9744 109.6 72.4745 92.4702 74.8203 85.1574C79.397 70.8962 82.4154 56.3633 85.5452 38.9156C87.3004 29.161 87.9376 19.8623 80.8012 17.9157L35.8507 5.63948L39.1592 125.362L71.3837 133.996L73.9657 124.36C75.8335 117.357 80.2227 100.977 85.0803 82.8156C91.0942 60.3715 97.8277 35.2097 101.445 21.6444C101.763 20.4589 102.982 19.7553 104.159 20.0708C105.345 20.3884 106.048 21.6072 105.733 22.7847C102.115 36.35 95.3796 61.5197 89.3678 83.9559C84.5022 102.115 80.1152 118.487 78.2553 125.492L75.0981 137.275L75.128 137.292Z" fill="#F9F9F9"/>
<path d="M102.759 157.204C103.077 156.019 104.296 155.315 105.481 155.633L141.446 165.269C142.392 165.523 143.065 166.373 143.095 167.351L146.525 291.716C146.551 292.418 146.226 293.087 145.68 293.524C145.125 293.959 144.398 294.108 143.72 293.917L95.8877 280.86C83.8556 277.576 86.6229 262.186 87.9442 254.788C91.1031 237.168 94.1585 222.465 98.8136 207.975C101.737 198.86 107.831 179.897 121.274 182.048C131.209 184.444 133.244 202.993 133.643 208.62C133.718 209.524 133.771 210.448 133.813 211.378C134.186 219.952 133.661 236.234 126.027 248.929C124.57 251.355 119.243 259.38 112.055 260.768C109.53 261.25 107.119 260.733 105.074 259.266C102.301 257.278 100.381 253.647 99.7881 249.291C98.8954 242.69 99.6352 234.226 101.868 225.475C105.554 210.983 111.957 209.419 115.437 209.76C120.781 210.29 125.401 216.147 125.744 222.815C126.118 230.23 121.289 235.692 112.805 237.428C111.606 237.674 110.433 236.896 110.187 235.697C109.942 234.498 110.72 233.324 111.919 233.078C120.449 231.329 121.469 226.048 121.321 223.046C121.1 218.712 118.093 214.489 115.007 214.186C111.552 213.844 108.268 218.51 106.183 226.579C104.085 234.791 103.38 242.647 104.203 248.705C104.618 251.804 105.922 254.402 107.679 255.663C108.736 256.427 109.899 256.67 111.231 256.409C114.752 255.73 119.077 251.892 122.235 246.643C129.273 234.956 129.742 219.654 129.391 211.575C129.351 210.698 129.302 209.826 129.234 208.958C128.367 196.526 124.826 187.473 120.424 186.405C110.913 184.895 105.413 202.026 103.067 209.338C98.4904 223.599 95.472 238.132 92.3422 255.58C90.587 265.335 89.9498 274.633 97.0862 276.58L142.037 288.856L138.728 169.134L106.504 160.5L103.922 170.136C102.054 177.139 97.6648 193.519 92.8072 211.68C86.7933 234.124 80.0598 259.286 76.4421 272.851C76.1245 274.037 74.9057 274.74 73.7282 274.425C72.5428 274.107 71.8391 272.888 72.1546 271.711C75.7722 258.146 82.5079 232.976 88.5196 210.54C93.3853 192.381 97.7723 176.008 99.6321 169.003L102.789 157.221L102.759 157.204Z" fill="#F9F9F9"/>
<path d="M76.2474 273.546C75.9297 274.731 74.711 275.435 73.5255 275.117L37.5603 265.481C36.6152 265.227 35.9415 264.377 35.9117 263.399L32.4821 139.034C32.4557 138.332 32.7808 137.663 33.3272 137.226C33.8817 136.791 34.6083 136.642 35.2871 136.833L83.1191 149.89C95.1511 153.174 92.3839 168.564 91.0625 175.962C87.9037 193.582 84.8483 208.285 80.1932 222.775C77.27 231.89 71.1758 250.853 57.7327 248.702C47.7978 246.306 45.7623 227.757 45.3642 222.13C45.2889 221.226 45.236 220.302 45.1933 219.372C44.8206 210.798 45.3459 194.516 52.9801 181.821C54.437 179.395 59.7638 171.37 66.9522 169.982C69.4768 169.5 71.888 170.017 73.9332 171.484C76.7058 173.472 78.6261 177.102 79.2186 181.459C80.1114 188.06 79.3716 196.524 77.1384 205.275C73.4529 219.767 67.05 221.331 63.5697 220.99C58.2259 220.46 53.6054 214.603 53.2629 207.935C52.8888 200.52 57.7179 195.058 66.2016 193.322C67.4005 193.076 68.5743 193.854 68.8196 195.053C69.065 196.252 68.2869 197.426 67.0879 197.671C58.5577 199.421 57.5375 204.702 57.6862 207.704C57.9069 212.038 60.9136 216.261 64.0002 216.564C67.4543 216.906 70.7392 212.24 72.8241 204.171C74.9215 195.959 75.6269 188.103 74.8035 182.045C74.389 178.946 73.085 176.347 71.328 175.087C70.2707 174.323 69.1081 174.08 67.7761 174.341C64.2545 175.02 59.9295 178.858 56.7716 184.107C49.7337 195.794 49.2651 211.096 49.616 219.175C49.6556 220.052 49.7053 220.924 49.7731 221.792C50.6402 234.224 54.1811 243.277 58.5825 244.345C68.0938 245.855 73.5938 228.724 75.9396 221.412C80.5164 207.15 83.5348 192.618 86.6646 175.17C88.4198 165.415 89.057 156.117 81.9206 154.17L36.97 141.894L40.2786 261.616L72.503 270.25L75.085 260.614C76.9528 253.611 81.342 237.231 86.1996 219.07C92.2135 196.626 98.947 171.464 102.565 157.899C102.882 156.713 104.101 156.01 105.279 156.325C106.464 156.643 107.168 157.861 106.852 159.039C103.235 172.604 96.4989 197.774 90.4871 220.21C85.6215 238.369 81.2345 254.742 79.3747 261.747L76.2175 273.529L76.2474 273.546Z" fill="#F9F9F9"/>
<path d="M106.052 294.032C106.369 292.847 107.588 292.143 108.774 292.461L144.739 302.097C145.684 302.351 146.358 303.201 146.387 304.179L149.815 428.552C149.841 429.254 149.516 429.923 148.97 430.36C148.415 430.795 147.689 430.944 147.01 430.754L99.1779 417.697C87.1458 414.413 89.9131 399.022 91.2344 391.624C94.3933 374.004 97.4487 359.301 102.104 344.811C105.027 335.696 111.121 316.733 124.564 318.884C134.499 321.28 136.535 339.829 136.933 345.456C137.008 346.36 137.061 347.284 137.104 348.214C137.476 356.788 136.951 373.07 129.317 385.766C127.86 388.191 122.533 396.216 115.345 397.604C112.82 398.086 110.409 397.569 108.364 396.102C105.591 394.115 103.671 390.484 103.078 386.127C102.186 379.526 102.925 371.062 105.159 362.311C108.844 347.819 115.247 346.256 118.727 346.596C124.071 347.126 128.692 352.983 129.034 359.651C129.408 367.066 124.579 372.528 116.095 374.264C114.896 374.51 113.723 373.732 113.477 372.533C113.232 371.334 114.01 370.16 115.209 369.915C123.739 368.165 124.759 362.884 124.611 359.882C124.39 355.548 121.383 351.325 118.297 351.022C114.843 350.68 111.558 355.346 109.473 363.415C107.376 371.627 106.67 379.483 107.493 385.541C107.908 388.64 109.212 391.239 110.969 392.499C112.026 393.263 113.189 393.506 114.521 393.245C118.042 392.566 122.367 388.728 125.525 383.479C132.563 371.792 133.032 356.49 132.681 348.411C132.641 347.534 132.592 346.662 132.524 345.794C131.657 333.362 128.116 324.309 123.715 323.241C114.203 321.731 108.703 338.862 106.357 346.174C101.781 360.436 98.7622 374.969 95.6324 392.416C93.8772 402.171 93.24 411.47 100.376 413.416L145.327 425.692L142.018 305.97L109.794 297.336L107.212 306.972C105.344 313.975 100.955 330.355 96.0974 348.516C90.0835 370.96 83.35 396.122 79.7323 409.687C79.4147 410.873 78.1959 411.577 77.0185 411.261C75.833 410.943 75.1293 409.725 75.4448 408.547C79.0625 394.982 85.7981 369.812 91.8098 347.376C96.6755 329.217 101.062 312.845 102.922 305.84L106.08 294.057L106.052 294.032Z" fill="#F9F9F9"/>
<path d="M79.5317 410.372C79.2141 411.558 77.9953 412.261 76.8098 411.944L40.8447 402.307C39.8995 402.053 39.2259 401.203 39.1961 400.225L35.7665 275.86C35.7401 275.158 36.0651 274.489 36.6116 274.052C37.1661 273.617 37.8927 273.468 38.5714 273.659L86.4034 286.716C98.4355 290 95.6682 305.39 94.3469 312.788C91.1881 330.408 88.1326 345.111 83.4776 359.601C80.5543 368.716 74.4602 387.679 61.0171 385.528C51.0821 383.132 49.0467 364.583 48.6485 358.957C48.5732 358.052 48.5204 357.128 48.4777 356.198C48.105 347.624 48.6303 331.342 56.2644 318.647C57.7214 316.221 63.0482 308.196 70.2366 306.808C72.7612 306.326 75.1723 306.843 77.2175 308.31C79.9902 310.298 81.9105 313.929 82.503 318.285C83.3957 324.886 82.6559 333.35 80.4227 342.101C76.7372 356.593 70.3343 358.157 66.8541 357.816C61.5103 357.286 56.8897 351.429 56.5473 344.761C56.1732 337.346 61.0022 331.884 69.4859 330.148C70.6849 329.902 71.8586 330.681 72.104 331.88C72.3493 333.078 71.5712 334.252 70.3723 334.498C61.8421 336.247 60.8219 341.528 60.9705 344.53C61.1913 348.864 64.1979 353.087 67.2846 353.39C70.7387 353.732 74.0235 349.066 76.1085 340.997C78.2058 332.785 78.9113 324.93 78.0879 318.871C77.6733 315.772 76.3693 313.174 74.6123 311.913C73.5551 311.149 72.3924 310.906 71.0604 311.167C67.5389 311.846 63.2139 315.684 60.056 320.933C53.0181 332.621 52.5495 347.922 52.9004 356.001C52.9399 356.878 52.9896 357.75 53.0575 358.618C53.9245 371.05 57.4654 380.103 61.8668 381.171C71.3781 382.681 76.8782 365.551 79.224 358.238C83.8008 343.977 86.8191 329.444 89.9489 311.996C91.7042 302.241 92.3413 292.943 85.2049 290.996L40.2544 278.72L43.5629 398.442L75.7874 407.076L78.3694 397.44C80.2372 390.437 84.6264 374.057 89.484 355.896C95.4979 333.452 102.231 308.29 105.849 294.725C106.167 293.539 107.385 292.836 108.563 293.151C109.748 293.469 110.452 294.688 110.137 295.865C106.519 309.43 99.7833 334.6 93.7715 357.036C88.9059 375.195 84.5189 391.568 82.659 398.573L79.5018 410.355L79.5317 410.372Z" fill="#F9F9F9"/>
</mask>
<g mask="url(#mask0_5_2)">
<rect x="335" y="-51" width="493" height="673" transform="rotate(90 335 -51)" fill="#F6F6F6"/>
</g>
</svg>
