<svg width="227" height="142" viewBox="0 0 227 142" fill="none" xmlns="http://www.w3.org/2000/svg">
<g clip-path="url(#clip0_3_131)">
<path d="M4.06 141.21C1.82 141.21 0 139.39 0 137.15V69.02C0 67.22 1.18 65.64 2.9 65.13L221.05 0.17001C222.28 -0.19999 223.62 0.0400103 224.64 0.81001C225.67 1.58001 226.27 2.79001 226.27 4.08001L225.84 94.8C225.73 117.61 197.23 120.02 183.53 121.18C150.89 123.93 123.46 125.5 95.65 124.14C78.16 123.29 41.77 121.51 39.19 96.73C38.72 78.04 70.53 65.65 80.29 62.3C81.85 61.74 83.46 61.21 85.08 60.7C100.06 55.98 129.07 49.19 155.12 56.68C160.1 58.11 176.8 63.72 182.66 75.76C184.71 79.99 184.94 84.5 183.31 88.81C181.1 94.65 175.6 99.77 168.19 102.87C156.94 107.58 141.64 110.28 125.11 110.48C97.76 110.83 91.96 100.26 90.92 93.95C89.33 84.26 97.49 73.31 109.11 69.55C122.03 65.37 133.97 71.32 141.06 85.5C142.06 87.51 141.25 89.95 139.24 90.95C137.24 91.95 134.79 91.14 133.79 89.14C126.67 74.89 116.84 75.59 111.61 77.28C104.06 79.72 98.02 87.04 98.94 92.63C99.97 98.9 109.77 102.5 125.01 102.35C140.52 102.16 154.74 99.69 165.05 95.37C170.33 93.16 174.31 89.64 175.7 85.93C176.54 83.7 176.42 81.53 175.34 79.31C172.47 73.41 163.65 67.58 152.87 64.48C128.88 57.57 101.62 63.99 87.51 68.44C85.98 68.92 84.47 69.43 82.96 69.96C61.4 77.38 47.08 87.92 47.28 96.21C49.11 113.73 81.99 115.34 96.03 116.03C123.4 117.36 150.51 115.82 182.83 113.08C200.9 111.56 217.64 108.28 217.7 94.76L218.11 9.51001L8.12 72.05V133.09H26.37C39.63 133.07 70.65 133.07 105.04 133.06C147.54 133.06 195.21 133.04 220.89 133.01C223.13 133.01 224.95 134.82 224.95 137.07C224.95 139.31 223.14 141.13 220.89 141.14C195.2 141.17 147.54 141.18 105.03 141.19C70.64 141.19 39.63 141.2 26.36 141.22H4.06V141.21Z" fill="white"/>
</g>
<defs>
<clipPath id="clip0_3_131">
<rect width="226.27" height="141.21" fill="white"/>
</clipPath>
</defs>
</svg>
