<svg width="512" height="142" viewBox="0 0 512 142" fill="none" xmlns="http://www.w3.org/2000/svg">
<g clip-path="url(#clip0_91_3497)">
<path d="M4.06 141.21C1.82 141.21 0 139.39 0 137.15V69.02C0 67.22 1.18 65.64 2.9 65.13L221.05 0.17001C222.28 -0.19999 223.62 0.0400103 224.64 0.81001C225.67 1.58001 226.27 2.79001 226.27 4.08001L225.84 94.8C225.73 117.61 197.23 120.02 183.53 121.18C150.89 123.93 123.46 125.5 95.65 124.14C78.16 123.29 41.77 121.51 39.19 96.73C38.72 78.04 70.53 65.65 80.29 62.3C81.85 61.74 83.46 61.21 85.08 60.7C100.06 55.98 129.07 49.19 155.12 56.68C160.1 58.11 176.8 63.72 182.66 75.76C184.71 79.99 184.94 84.5 183.31 88.81C181.1 94.65 175.6 99.77 168.19 102.87C156.94 107.58 141.64 110.28 125.11 110.48C97.76 110.83 91.96 100.26 90.92 93.95C89.33 84.26 97.49 73.31 109.11 69.55C122.03 65.37 133.97 71.32 141.06 85.5C142.06 87.51 141.25 89.95 139.24 90.95C137.24 91.95 134.79 91.14 133.79 89.14C126.67 74.89 116.84 75.59 111.61 77.28C104.06 79.72 98.02 87.04 98.94 92.63C99.97 98.9 109.77 102.5 125.01 102.35C140.52 102.16 154.74 99.69 165.05 95.37C170.33 93.16 174.31 89.64 175.7 85.93C176.54 83.7 176.42 81.53 175.34 79.31C172.47 73.41 163.65 67.58 152.87 64.48C128.88 57.57 101.62 63.99 87.51 68.44C85.98 68.92 84.47 69.43 82.96 69.96C61.4 77.38 47.08 87.92 47.28 96.21C49.11 113.73 81.99 115.34 96.03 116.03C123.4 117.36 150.51 115.82 182.83 113.08C200.9 111.56 217.64 108.28 217.7 94.76L218.11 9.51001L8.12 72.05V133.09H26.37C39.63 133.07 70.65 133.07 105.04 133.06C147.54 133.06 195.21 133.04 220.89 133.01C223.13 133.01 224.95 134.82 224.95 137.07C224.95 139.31 223.14 141.13 220.89 141.14C195.2 141.17 147.54 141.18 105.03 141.19C70.64 141.19 39.63 141.2 26.36 141.22H4.06V141.21Z" fill="white"/>
<path d="M259.33 36.12V3.84003H269.8C271.98 3.84003 273.81 4.02003 275.27 4.39003C276.73 4.76003 277.9 5.30003 278.8 6.00003C279.69 6.71003 280.33 7.58003 280.72 8.60003C281.1 9.63003 281.3 10.81 281.3 12.13C281.3 13.08 281.14 13.97 280.84 14.78C280.53 15.59 280.02 16.31 279.31 16.93C278.6 17.54 277.7 18.02 276.59 18.36C275.48 18.7 274.14 18.87 272.58 18.87V19.79C274.76 19.79 276.59 19.95 278.07 20.27C279.55 20.59 280.73 21.08 281.62 21.73C282.51 22.37 283.14 23.17 283.51 24.1C283.88 25.04 284.07 26.12 284.07 27.35C284.07 28.76 283.88 30.01 283.49 31.09C283.1 32.17 282.46 33.08 281.57 33.83C280.68 34.59 279.5 35.15 278.04 35.54C276.58 35.92 274.76 36.12 272.58 36.12H259.34H259.33ZM265.1 16.98H269.8C270.88 16.98 271.78 16.9 272.52 16.75C273.26 16.6 273.85 16.36 274.3 16.03C274.75 15.7 275.06 15.29 275.24 14.78C275.43 14.27 275.52 13.67 275.52 12.96C275.52 12.25 275.43 11.6 275.24 11.09C275.06 10.58 274.74 10.17 274.3 9.84003C273.86 9.51003 273.26 9.28003 272.52 9.12003C271.78 8.97003 270.88 8.89003 269.8 8.89003H265.1V16.96V16.98ZM265.1 31.05H272.57C273.65 31.05 274.55 30.96 275.29 30.79C276.03 30.62 276.62 30.35 277.07 29.98C277.51 29.61 277.83 29.14 278.01 28.57C278.19 28 278.29 27.32 278.29 26.52C278.29 25.72 278.19 25.08 278.01 24.51C277.82 23.94 277.51 23.47 277.07 23.1C276.62 22.73 276.03 22.46 275.29 22.29C274.55 22.12 273.65 22.03 272.57 22.03H265.1V31.03V31.05Z" fill="white"/>
<path d="M285.25 36.12L294.66 3.83002H306.05L315.41 36.12H309.51L306.42 25.09H294.24L291.1 36.12H285.24H285.25ZM295.54 20.03H305.13L300.79 4.53002H299.87L295.53 20.03H295.54Z" fill="white"/>
<path d="M316.3 19.98C316.3 14.32 317.51 10.1 319.94 7.32002C322.37 4.54002 325.98 3.15002 330.78 3.15002C334.99 3.15002 338.28 4.19002 340.63 6.26002C342.98 8.34002 344.36 11.48 344.76 15.69H338.77C338.43 13.08 337.61 11.18 336.32 9.99002C335.03 8.81002 333.18 8.21002 330.78 8.21002C327.92 8.21002 325.75 9.17002 324.28 11.09C322.8 13.01 322.07 15.97 322.07 19.97C322.07 23.97 322.74 26.81 324.08 28.78C325.42 30.75 327.55 31.73 330.47 31.73C331.73 31.73 332.8 31.56 333.68 31.22C334.55 30.88 335.26 30.35 335.8 29.63C336.34 28.91 336.73 27.96 337 26.79C337.26 25.62 337.41 24.19 337.44 22.5H326.41V17.43H336.37C338.67 17.43 340.55 17.97 342 19.04C343.45 20.12 344.47 21.75 345.09 23.93L348.64 36.11H341.95L340.15 25.13H339.23C339.2 29.07 338.44 31.99 336.95 33.92C335.46 35.84 333.15 36.8 330.01 36.8C327.8 36.8 325.84 36.43 324.13 35.69C322.42 34.95 320.99 33.87 319.84 32.44C318.69 31.01 317.81 29.25 317.21 27.16C316.61 25.07 316.31 22.67 316.31 19.96L316.3 19.98Z" fill="white"/>
<path d="M373.04 36.12V22.51H357.22V36.12H351.45V3.84003H357.22V17.45H373.04V3.84003H378.81V36.13H373.04V36.12Z" fill="white"/>
<path d="M384.15 36.12V3.84003H395.78C398.52 3.84003 400.87 4.16003 402.84 4.81003C404.81 5.46003 406.42 6.45003 407.68 7.79003C408.94 9.13003 409.88 10.8 410.49 12.82C411.1 14.84 411.41 17.22 411.41 19.99C411.41 22.76 411.1 25.16 410.49 27.19C409.87 29.22 408.94 30.9 407.68 32.22C406.42 33.54 404.8 34.53 402.84 35.17C400.87 35.81 398.52 36.14 395.78 36.14H384.15V36.12ZM395.78 8.91003H389.92V31.05H395.78C397.53 31.05 399.03 30.84 400.28 30.43C401.52 30.02 402.55 29.35 403.35 28.42C404.15 27.5 404.72 26.33 405.08 24.91C405.43 23.5 405.61 21.82 405.61 19.88C405.61 17.94 405.43 16.27 405.08 14.87C404.73 13.47 404.15 12.33 403.35 11.46C402.55 10.58 401.53 9.94003 400.28 9.52003C399.04 9.11003 397.54 8.90003 395.78 8.90003V8.91003Z" fill="white"/>
<path d="M412.25 36.12L421.66 3.83002H433.05L442.41 36.12H436.51L433.42 25.09H421.24L418.1 36.12H412.24H412.25ZM422.54 20.03H432.13L427.79 4.53002H426.87L422.53 20.03H422.54Z" fill="white"/>
<path d="M445.78 36.12V3.84003H457.41C460.15 3.84003 462.5 4.16003 464.47 4.81003C466.44 5.46003 468.05 6.45003 469.31 7.79003C470.57 9.13003 471.51 10.8 472.12 12.82C472.74 14.83 473.04 17.22 473.04 19.99C473.04 22.76 472.73 25.16 472.12 27.19C471.5 29.22 470.57 30.9 469.31 32.22C468.05 33.54 466.43 34.53 464.47 35.17C462.5 35.81 460.15 36.14 457.41 36.14H445.78V36.12ZM457.41 8.91003H451.55V31.05H457.41C459.16 31.05 460.66 30.84 461.91 30.43C463.15 30.02 464.18 29.35 464.98 28.42C465.78 27.5 466.35 26.33 466.71 24.91C467.06 23.5 467.24 21.82 467.24 19.88C467.24 17.94 467.06 16.27 466.71 14.87C466.36 13.47 465.78 12.33 464.98 11.46C464.18 10.59 463.16 9.94003 461.91 9.52003C460.67 9.11003 459.17 8.90003 457.41 8.90003V8.91003Z" fill="white"/>
<path d="M259.33 86.75V54.46H281.75V59.53H265.1V68.52H280.37V73.6H265.1V86.75H259.33Z" fill="white"/>
<path d="M284.15 54.46H306.85V59.44H298.36V81.77H306.85V86.75H284.15V81.77H292.64V59.44H284.15V54.46Z" fill="white"/>
<path d="M311.05 86.75V54.46H316.82V81.68H332.04V86.75H311.05Z" fill="white"/>
<path d="M358.84 86.75H347.63L341.96 55.15H341.13V86.75H335.36V54.46H347.17L352.84 86.06H353.67L359.29 54.46H371.1V86.75H365.33V55.15H364.5L358.83 86.75H358.84Z" fill="white"/>
<path d="M259.33 105.09H282.03V110.07H273.54V132.4H282.03V137.38H259.33V132.4H267.82V110.07H259.33V105.09Z" fill="white"/>
<path d="M302.97 137.37L292.91 105.77H291.99V137.37H286.22V105.08H298.22L308.28 136.68H309.2V105.08H314.97V137.37H302.97Z" fill="white"/>
<path d="M320.18 113.62C320.18 112.21 320.43 110.93 320.94 109.79C321.45 108.65 322.2 107.68 323.2 106.88C324.2 106.08 325.4 105.47 326.8 105.03C328.2 104.6 329.78 104.39 331.53 104.39C335.41 104.39 338.33 105.24 340.29 106.93C342.26 108.62 343.43 111.28 343.8 114.91H338.17C337.93 112.91 337.3 111.48 336.31 110.62C335.31 109.76 333.75 109.33 331.63 109.33C329.69 109.33 328.24 109.7 327.27 110.44C326.3 111.18 325.82 112.24 325.82 113.62C325.82 114.3 325.97 114.87 326.28 115.33C326.59 115.79 327.07 116.19 327.74 116.53C328.4 116.87 329.25 117.18 330.3 117.45C331.35 117.73 332.58 118.02 333.99 118.33C335.83 118.73 337.51 119.17 339.02 119.67C340.53 120.16 341.8 120.78 342.85 121.51C343.9 122.25 344.69 123.16 345.23 124.26C345.77 125.35 346.03 126.73 346.03 128.39C346.03 131.5 344.97 133.89 342.85 135.56C340.73 137.24 337.59 138.07 333.44 138.07C331.07 138.07 329.03 137.84 327.33 137.38C325.62 136.92 324.18 136.21 323.01 135.26C321.84 134.31 320.93 133.1 320.29 131.64C319.65 130.18 319.21 128.43 319 126.4H324.67C324.82 127.57 325.09 128.58 325.47 129.42C325.85 130.26 326.4 130.96 327.11 131.52C327.82 132.07 328.67 132.48 329.67 132.74C330.67 133 331.88 133.13 333.29 133.13C335.72 133.13 337.51 132.71 338.66 131.86C339.81 131.02 340.39 129.84 340.39 128.33C340.39 127.5 340.22 126.83 339.88 126.32C339.54 125.81 339.02 125.38 338.31 125.01C337.6 124.64 336.72 124.32 335.66 124.04C334.6 123.76 333.38 123.48 331.99 123.21C330.08 122.75 328.4 122.28 326.94 121.8C325.48 121.32 324.24 120.72 323.23 120C322.21 119.28 321.45 118.41 320.95 117.39C320.44 116.38 320.19 115.12 320.19 113.61L320.18 113.62Z" fill="white"/>
<path d="M356.8 137.37V110.15H346.24V105.08H373.13V110.15H362.57V137.37H356.8Z" fill="white"/>
<path d="M375.35 105.09H398.05V110.07H389.56V132.4H398.05V137.38H375.35V132.4H383.84V110.07H375.35V105.09Z" fill="white"/>
<path d="M410.82 137.37V110.15H400.26V105.08H427.15V110.15H416.59V137.37H410.82Z" fill="white"/>
<path d="M430.2 105.09H435.97L435.92 125.57C435.95 126.83 436.08 127.93 436.31 128.87C436.54 129.81 436.93 130.59 437.49 131.2C438.04 131.82 438.8 132.27 439.75 132.56C440.71 132.85 441.89 133 443.3 133C444.71 133 445.95 132.85 446.9 132.56C447.86 132.27 448.61 131.81 449.18 131.2C449.75 130.59 450.15 129.81 450.38 128.87C450.61 127.93 450.73 126.83 450.73 125.57V105.09H456.5V125.57C456.5 129.72 455.48 132.84 453.46 134.93C451.43 137.02 448.04 138.07 443.31 138.07C438.58 138.07 435.29 137.02 433.25 134.93C431.22 132.84 430.21 129.72 430.21 125.57V105.09H430.2Z" fill="white"/>
<path d="M470.05 137.37V110.15H459.49V105.08H486.38V110.15H475.82V137.37H470.05Z" fill="white"/>
<path d="M489.74 137.37V105.08H511.24V110.06H495.41V118.73H509.85V123.71H495.41V132.38H511.24V137.36H489.74V137.37Z" fill="white"/>
</g>
<defs>
<clipPath id="clip0_91_3497">
<rect width="511.24" height="141.21" fill="white"/>
</clipPath>
</defs>
</svg>
