<svg width="263" height="111" viewBox="0 0 263 111" fill="none" xmlns="http://www.w3.org/2000/svg">
<mask id="mask0_4_519" style="mask-type:alpha" maskUnits="userSpaceOnUse" x="0" y="0" width="263" height="111">
<path d="M12.7502 48.3818C12.029 48.1885 11.5997 47.452 11.7929 46.7309L17.6552 24.8527C17.8105 24.2728 18.3264 23.8679 18.9214 23.8498L94.5746 21.7635C95.0019 21.7475 95.4085 21.9452 95.6746 22.2776C95.9393 22.6149 96.0298 23.0569 95.9139 23.4698L87.9712 52.5668C85.9734 59.8861 76.6114 58.2028 72.1109 57.399C61.3922 55.4774 52.4479 53.6187 43.6339 50.787C38.0888 49.0087 26.5534 45.3016 27.862 37.1239C29.3195 31.0803 40.6028 29.8421 44.0258 29.5999C44.576 29.5541 45.1382 29.5219 45.7039 29.496C50.9193 29.2692 60.8243 29.5888 68.547 34.2328C70.0225 35.119 74.9042 38.3594 75.7483 42.7323C76.0419 44.268 75.7272 45.7348 74.835 46.9789C73.6258 48.6655 71.4171 49.8337 68.7667 50.1941C64.7513 50.7372 59.6024 50.2871 54.2791 48.9287C45.4637 46.6867 44.5124 42.7917 44.7193 40.6746C45.042 37.4239 48.6048 34.6131 52.661 34.4048C57.1716 34.1772 60.4946 37.1148 61.5506 42.2756C61.6999 43.005 61.2266 43.719 60.4972 43.8682C59.7678 44.0175 59.0538 43.5441 58.9046 42.8148C57.8404 37.6257 54.6278 37.0051 52.8018 37.0956C50.165 37.2299 47.5964 39.0588 47.4118 40.9365C47.2039 43.0377 50.0422 45.0359 54.951 46.3042C59.9465 47.5801 64.725 48.0092 68.4105 47.5083C70.2955 47.2562 71.8764 46.4629 72.6432 45.3941C73.108 44.7509 73.2557 44.0437 73.0968 43.2334C72.6838 41.0912 70.3493 38.4602 67.156 36.5392C60.0464 32.258 50.738 31.9729 45.8239 32.1863C45.29 32.2104 44.7596 32.2406 44.2315 32.2819C36.669 32.8094 31.1618 34.9633 30.5123 37.6408C29.5939 43.4267 40.0146 46.7725 44.463 48.1994C53.1384 50.9836 61.979 52.8197 72.5927 54.7236C78.5266 55.7913 84.1832 56.1789 85.3673 51.8378L92.8351 24.4936L20.0022 26.5208L14.7497 46.1235L20.6115 47.6942C24.8715 48.8304 34.8361 51.5004 45.8837 54.4554C59.5368 58.1137 74.8431 62.2098 83.0951 64.4105C83.8163 64.6037 84.2443 65.3451 84.0524 66.0614C83.8592 66.7826 83.1178 67.2106 82.4015 67.0187C74.1495 64.818 58.8383 60.7206 45.19 57.0636C34.1437 54.1037 24.184 51.435 19.9227 50.3037L12.7502 48.3818Z" fill="#F9F9F9"/>
<path d="M83.5168 64.5131C84.2379 64.7063 84.666 65.4477 84.4728 66.1689L78.6105 88.0471C78.4564 88.622 77.9393 89.0318 77.3443 89.05L1.69109 91.1362C1.26376 91.1523 0.857164 90.9545 0.591105 90.6221C0.326351 90.2848 0.240764 89.8441 0.351743 89.4299L8.2945 60.3329C10.2923 53.0136 19.6543 54.697 24.1548 55.5008C34.8735 57.4223 43.8177 59.281 52.6318 62.1128C58.1768 63.891 69.7123 67.5982 68.4037 75.7759C66.9462 81.8194 55.6628 83.0576 52.2399 83.2999C51.6897 83.3457 51.1275 83.3778 50.5617 83.4038C45.3464 83.6305 35.4414 83.3109 27.7187 78.667C26.2432 77.7807 21.3615 74.5403 20.5173 70.1675C20.2238 68.6317 20.5385 67.165 21.4306 65.9208C22.6398 64.2342 24.8486 63.0661 27.499 62.7056C31.5144 62.1626 36.6633 62.6126 41.9866 63.9711C50.802 66.213 51.7533 70.108 51.5464 72.2251C51.2237 75.4758 47.6609 78.2866 43.6046 78.4949C39.0941 78.7225 35.7711 75.7849 34.715 70.6241C34.5658 69.8948 35.0391 69.1808 35.7685 69.0315C36.4978 68.8823 37.2118 69.3556 37.3611 70.0849C38.4252 75.274 41.6379 75.8946 43.4639 75.8042C46.1007 75.6699 48.6693 73.8409 48.8538 71.9633C49.0617 69.8621 46.2234 67.8638 41.3147 66.5955C36.3192 65.3196 31.5407 64.8905 27.8552 65.3914C25.9702 65.6436 24.3893 66.4368 23.6225 67.5056C23.1577 68.1488 23.0099 68.856 23.1688 69.6663C23.5819 71.8085 25.9164 74.4395 29.1096 76.3605C36.2192 80.6418 45.5277 80.9269 50.4418 80.7134C50.9757 80.6893 51.5061 80.6591 52.0341 80.6178C59.5966 80.0904 65.1038 77.9364 65.7533 75.259C66.6717 69.4731 56.2511 66.1273 51.8027 64.7003C43.1273 61.9162 34.2867 60.08 23.6729 58.1761C17.7391 57.1084 12.0825 56.7208 10.8984 61.062L3.43055 88.4061L76.2595 86.3935L81.5121 66.7908L75.6503 65.2202C71.3903 64.0839 61.4257 61.4139 50.3781 58.459C36.7249 54.8006 21.4186 50.7045 13.1666 48.5038C12.4455 48.3106 12.0174 47.5692 12.2094 46.8529C12.4026 46.1318 13.144 45.7037 13.8603 45.8957C22.1123 48.0963 37.4234 52.1937 51.0717 55.8508C62.118 58.8106 72.0777 61.4793 76.339 62.6107L83.5067 64.5313L83.5168 64.5131Z" fill="#F9F9F9"/>
<path d="M95.6299 47.7045C94.9087 47.5112 94.4807 46.7698 94.6739 46.0487L100.536 24.1705C100.69 23.5955 101.207 23.1857 101.802 23.1676L177.456 21.0813C177.883 21.0653 178.289 21.263 178.556 21.5954C178.82 21.9327 178.911 22.3747 178.795 22.7876L170.852 51.8846C168.854 59.2039 159.492 57.5206 154.992 56.7168C144.273 54.7952 135.329 52.9365 126.515 50.1048C120.97 48.3265 109.434 44.6194 110.743 36.4417C112.2 30.3981 123.484 29.1599 126.907 28.9177C127.457 28.8719 128.019 28.8397 128.585 28.8138C133.8 28.587 143.705 28.9066 151.428 33.5506C152.903 34.4368 157.785 37.6772 158.629 42.0501C158.923 43.5858 158.608 45.0526 157.716 46.2967C156.507 47.9833 154.298 49.1515 151.648 49.5119C147.632 50.055 142.483 49.6049 137.16 48.2465C128.345 46.0045 127.393 42.1095 127.6 39.9924C127.923 36.7417 131.486 33.9309 135.542 33.7226C140.053 33.495 143.376 36.4326 144.432 41.5934C144.581 42.3228 144.108 43.0368 143.378 43.186C142.649 43.3353 141.935 42.862 141.786 42.1326C140.721 36.9435 137.509 36.3229 135.683 36.4134C133.046 36.5477 130.477 38.3766 130.293 40.2543C130.085 42.3555 132.923 44.3537 137.832 45.622C142.827 46.8979 147.606 47.327 151.291 46.8261C153.176 46.574 154.757 45.7807 155.524 44.7119C155.989 44.0687 156.137 43.3615 155.978 42.5512C155.565 40.409 153.23 37.778 150.037 35.857C142.927 31.5758 133.619 31.2907 128.705 31.5042C128.171 31.5282 127.641 31.5584 127.113 31.5997C119.55 32.1272 114.043 34.2811 113.393 36.9586C112.475 42.7445 122.896 46.0903 127.344 47.5172C136.019 50.3014 144.86 52.1375 155.474 54.0414C161.408 55.1091 167.064 55.4968 168.248 51.1556L175.716 23.8114L102.887 25.824L97.6346 45.4267L103.496 46.9974C107.756 48.1336 117.721 50.8036 128.769 53.7586C142.422 57.4169 157.728 61.513 165.98 63.7137C166.701 63.9069 167.129 64.6483 166.937 65.3646C166.744 66.0858 166.003 66.5138 165.286 66.3219C157.034 64.1212 141.723 60.0238 128.075 56.3668C117.029 53.4069 107.069 50.7382 102.808 49.6069L95.6399 47.6863L95.6299 47.7045Z" fill="#F9F9F9"/>
<path d="M166.403 63.8321C167.124 64.0254 167.552 64.7668 167.359 65.4879L161.496 87.3661C161.342 87.9411 160.825 88.3509 160.23 88.369L84.5769 90.4553C84.1496 90.4713 83.743 90.2736 83.4769 89.9412C83.2122 89.6039 83.1217 89.1619 83.2376 88.749L91.1803 59.652C93.1781 52.3327 102.54 54.016 107.041 54.8198C117.759 56.7414 126.704 58.6001 135.518 61.4318C141.063 63.2101 152.598 66.9172 151.289 75.0949C149.832 81.1385 138.549 82.3767 135.126 82.6189C134.576 82.6647 134.013 82.6969 133.448 82.7228C128.232 82.9496 118.327 82.63 110.605 77.986C109.129 77.0998 104.247 73.8594 103.403 69.4865C103.11 67.9508 103.424 66.484 104.316 65.2399C105.526 63.5532 107.734 62.3851 110.385 62.0247C114.4 61.4816 119.549 61.9316 124.872 63.2901C133.688 65.5321 134.639 69.4271 134.432 71.5442C134.11 74.7949 130.547 77.6057 126.49 77.814C121.98 78.0416 118.657 75.104 117.601 69.9432C117.452 69.2138 117.925 68.4998 118.654 68.3506C119.384 68.2013 120.098 68.6746 120.247 69.404C121.311 74.5931 124.524 75.2137 126.35 75.1232C128.987 74.9889 131.555 73.16 131.74 71.2823C131.948 69.1811 129.109 67.1829 124.201 65.9146C119.205 64.6387 114.427 64.2096 110.741 64.7105C108.856 64.9626 107.275 65.7559 106.508 66.8247C106.044 67.4679 105.896 68.1751 106.055 68.9854C106.468 71.1276 108.802 73.7586 111.995 75.6796C119.105 79.9608 128.414 80.2459 133.328 80.0324C133.862 80.0084 134.392 79.9782 134.92 79.9369C142.482 79.4094 147.99 77.2554 148.639 74.578C149.558 68.7921 139.137 65.4463 134.689 64.0194C126.013 61.2352 117.173 59.3991 106.559 57.4952C100.625 56.4275 94.9684 56.0399 93.7842 60.381L86.3164 87.7252L159.145 85.7126L164.398 66.1099L158.536 64.5392C154.276 63.403 144.312 60.733 133.264 57.778C119.611 54.1197 104.304 50.0236 96.0525 47.8229C95.3313 47.6297 94.9033 46.8883 95.0952 46.172C95.2884 45.4508 96.0298 45.0228 96.7461 45.2147C104.998 47.4154 120.309 51.5128 133.958 55.1698C145.004 58.1297 154.964 60.7984 159.225 61.9298L166.393 63.8503L166.403 63.8321Z" fill="#F9F9F9"/>
<path d="M178.865 45.7017C178.144 45.5084 177.716 44.767 177.909 44.0459L183.771 22.1677C183.925 21.5927 184.442 21.1829 185.037 21.1648L260.695 19.0798C261.123 19.0638 261.529 19.2615 261.795 19.5939C262.06 19.9312 262.15 20.3732 262.035 20.7861L254.092 49.8831C252.094 57.2024 242.732 55.5191 238.232 54.7153C227.513 52.7937 218.569 50.935 209.755 48.1033C204.21 46.325 192.674 42.6179 193.983 34.4402C195.44 28.3966 206.724 27.1584 210.147 26.9162C210.697 26.8704 211.259 26.8382 211.825 26.8123C217.04 26.5855 226.945 26.9051 234.668 31.5491C236.143 32.4353 241.025 35.6757 241.869 40.0486C242.163 41.5843 241.848 43.0511 240.956 44.2952C239.747 45.9818 237.538 47.15 234.887 47.5104C230.872 48.0535 225.723 47.6035 220.4 46.245C211.584 44.003 210.633 40.108 210.84 37.9909C211.163 34.7402 214.726 31.9294 218.782 31.7211C223.292 31.4935 226.615 34.4311 227.671 39.5919C227.821 40.3213 227.347 41.0353 226.618 41.1845C225.889 41.3338 225.175 40.8605 225.025 40.1311C223.961 34.942 220.748 34.3214 218.922 34.4119C216.286 34.5462 213.717 36.3751 213.533 38.2528C213.325 40.354 216.163 42.3522 221.072 43.6205C226.067 44.8964 230.846 45.3255 234.531 44.8246C236.416 44.5725 237.997 43.7792 238.764 42.7104C239.229 42.0672 239.376 41.36 239.218 40.5497C238.804 38.4075 236.47 35.7765 233.277 33.8555C226.167 29.5743 216.859 29.2892 211.945 29.5027C211.411 29.5267 210.88 29.5569 210.352 29.5982C202.79 30.1257 197.283 32.2797 196.633 34.9571C195.715 40.743 206.135 44.0888 210.584 45.5157C219.259 48.2999 228.1 50.136 238.713 52.0399C244.647 53.1076 250.304 53.4952 251.488 49.1541L258.956 21.8099L186.127 23.8225L180.874 43.4252L186.736 44.9959C190.996 46.1321 200.961 48.8021 212.008 51.7571C225.661 55.4154 240.968 59.5115 249.22 61.7122C249.941 61.9054 250.369 62.6468 250.177 63.3631C249.984 64.0843 249.242 64.5123 248.526 64.3204C240.274 62.1197 224.963 58.0223 211.315 54.3653C200.268 51.4054 190.309 48.7367 186.047 47.6053L178.88 45.6848L178.865 45.7017Z" fill="#F9F9F9"/>
<path d="M249.636 61.8342C250.357 62.0274 250.785 62.7688 250.592 63.49L244.73 85.3682C244.576 85.9432 244.059 86.3529 243.464 86.3711L167.81 88.4573C167.383 88.4734 166.977 88.2757 166.711 87.9433C166.446 87.606 166.355 87.1639 166.471 86.7511L174.414 57.6541C176.412 50.3347 185.774 52.0181 190.274 52.8219C200.993 54.7435 209.937 56.6022 218.751 59.4339C224.296 61.2121 235.832 64.9193 234.523 73.097C233.066 79.1406 221.782 80.3788 218.359 80.621C217.809 80.6668 217.247 80.6989 216.681 80.7249C211.466 80.9516 201.561 80.6321 193.838 75.9881C192.363 75.1018 187.481 71.8615 186.637 67.4886C186.343 65.9529 186.658 64.4861 187.55 63.242C188.759 61.5553 190.968 60.3872 193.618 60.0267C197.634 59.4837 202.783 59.9337 208.106 61.2922C216.921 63.5342 217.873 67.4292 217.666 69.5463C217.343 72.797 213.78 75.6077 209.724 75.816C205.213 76.0436 201.891 73.106 200.834 67.9452C200.685 67.2159 201.159 66.5019 201.888 66.3526C202.617 66.2034 203.331 66.6767 203.48 67.4061C204.545 72.5951 207.757 73.2157 209.583 73.1253C212.22 72.991 214.789 71.162 214.973 69.2844C215.181 67.1832 212.343 65.1849 207.434 63.9166C202.439 62.6408 197.66 62.2116 193.975 62.7125C192.09 62.9647 190.509 63.758 189.742 64.8268C189.277 65.4699 189.129 66.1772 189.288 66.9875C189.701 69.1297 192.036 71.7606 195.229 73.6817C202.339 77.9629 211.647 78.248 216.561 78.0345C217.095 78.0105 217.625 77.9802 218.154 77.9389C225.716 77.4115 231.223 75.2575 231.873 72.5801C232.791 66.7942 222.371 63.4484 217.922 62.0214C209.247 59.2373 200.406 57.4012 189.792 55.4973C183.858 54.4295 178.202 54.0419 177.018 58.3831L169.55 85.7273L242.379 83.7146L247.631 64.112L241.77 62.5413C237.51 61.4051 227.545 58.7351 216.497 55.7801C202.844 52.1217 187.538 48.0256 179.286 45.825C178.565 45.6317 178.137 44.8903 178.329 44.1741C178.522 43.4529 179.263 43.0249 179.98 43.2168C188.232 45.4175 203.543 49.5149 217.191 53.1719C228.237 56.1318 238.197 58.8005 242.458 59.9318L249.626 61.8524L249.636 61.8342Z" fill="#F9F9F9"/>
</mask>
<g mask="url(#mask0_4_519)">
<rect x="-31" y="15" width="300" height="59" fill="#F6F6F6"/>
</g>
</svg>
