<svg width="160" height="47" viewBox="0 0 160 47" fill="none" xmlns="http://www.w3.org/2000/svg">
<g clip-path="url(#clip0_16_2)">
<path d="M81.1611 12.2946V1.80707H84.4379C85.12 1.80707 85.6928 1.86555 86.1497 1.98576C86.6066 2.10597 86.9728 2.2814 87.2545 2.50884C87.533 2.73951 87.7333 3.02216 87.8554 3.35355C87.9743 3.68819 88.0369 4.07157 88.0369 4.50041C88.0369 4.80906 87.9869 5.09823 87.8929 5.36139C87.7959 5.62455 87.6363 5.85847 87.4141 6.05992C87.1919 6.25809 86.9102 6.41403 86.5629 6.5245C86.2155 6.63497 85.7961 6.69021 85.308 6.69021V6.98911C85.9901 6.98911 86.5629 7.04107 87.026 7.14504C87.4892 7.24902 87.8587 7.4082 88.1371 7.6194C88.4156 7.82732 88.6129 8.08723 88.7285 8.38938C88.8444 8.69478 88.9039 9.04566 88.9039 9.44528C88.9039 9.90337 88.8444 10.3095 88.7222 10.6604C88.6003 11.0113 88.4 11.3069 88.1215 11.5506C87.8429 11.7975 87.4736 11.9794 87.0167 12.1061C86.5598 12.2296 85.9901 12.2946 85.308 12.2946H81.1642H81.1611ZM82.9669 6.07614H84.4379C84.7759 6.07614 85.0574 6.05017 85.2891 6.00143C85.5206 5.95269 85.7053 5.87472 85.8461 5.76749C85.9871 5.66029 86.0841 5.52708 86.1404 5.36139C86.1999 5.19569 86.2281 5.00076 86.2281 4.77009C86.2281 4.5394 86.1999 4.32823 86.1404 4.16255C86.0841 3.99684 85.9838 3.86363 85.8461 3.75643C85.7086 3.6492 85.5206 3.57447 85.2891 3.52251C85.0574 3.47377 84.7759 3.44778 84.4379 3.44778H82.9669V6.06964V6.07614ZM82.9669 10.6474H85.3047C85.6428 10.6474 85.9245 10.6181 86.156 10.5629C86.3877 10.5077 86.5722 10.42 86.7131 10.2997C86.8509 10.1795 86.9509 10.0268 87.0072 9.84166C87.0637 9.65646 87.0949 9.43554 87.0949 9.17563C87.0949 8.91572 87.0637 8.70777 87.0072 8.52259C86.9479 8.33739 86.8509 8.1847 86.7131 8.06449C86.5722 7.94429 86.3877 7.85656 86.156 7.80133C85.9245 7.74609 85.6428 7.71685 85.3047 7.71685H82.9669V10.6409V10.6474Z" fill="#090000"/>
<path d="M89.2731 12.2946L92.2181 1.80383H95.7828L98.712 12.2946H96.8656L95.8985 8.71103H92.0866L91.1039 12.2946H89.27H89.2731ZM92.4935 7.06707H95.4948L94.1367 2.03126H93.8487L92.4903 7.06707H92.4935Z" fill="#090000"/>
<path d="M98.9905 7.05082C98.9905 5.21194 99.3692 3.84088 100.13 2.93769C100.89 2.03449 102.02 1.58289 103.522 1.58289C104.84 1.58289 105.869 1.92077 106.605 2.5933C107.34 3.26908 107.772 4.28924 107.898 5.65703H106.023C105.916 4.80906 105.66 4.19177 105.256 3.80514C104.852 3.42177 104.274 3.22684 103.522 3.22684C102.627 3.22684 101.948 3.53874 101.488 4.16253C101.025 4.78632 100.796 5.748 100.796 7.04757C100.796 8.34714 101.006 9.26983 101.426 9.90987C101.845 10.5499 102.511 10.8683 103.425 10.8683C103.82 10.8683 104.154 10.8131 104.43 10.7026C104.702 10.5921 104.924 10.4199 105.093 10.186C105.262 9.95211 105.384 9.64346 105.469 9.26334C105.55 8.88321 105.597 8.41862 105.607 7.86954H102.155V6.22235H105.272C105.992 6.22235 106.58 6.39779 107.034 6.74542C107.487 7.09631 107.807 7.62588 108.001 8.33415L109.112 12.2913H107.018L106.455 8.72402H106.167C106.157 10.0041 105.92 10.9528 105.453 11.5798C104.987 12.2036 104.264 12.5155 103.281 12.5155C102.59 12.5155 101.976 12.3953 101.441 12.1549C100.906 11.9145 100.458 11.5636 100.099 11.099C99.7386 10.6344 99.4632 10.0626 99.2754 9.38355C99.0877 8.70453 98.9937 7.92478 98.9937 7.04432L98.9905 7.05082Z" fill="#090000"/>
<path d="M116.748 12.2946V7.87281H111.797V12.2946H109.991V1.80707H111.797V6.22885H116.748V1.80707H118.554V12.2978H116.748V12.2946Z" fill="#090000"/>
<path d="M120.225 12.2946V1.80707H123.865C124.723 1.80707 125.458 1.91103 126.075 2.12222C126.691 2.33339 127.195 2.65503 127.589 3.09039C127.984 3.52576 128.278 4.06832 128.469 4.72461C128.66 5.38089 128.757 6.15412 128.757 7.05407C128.757 7.95404 128.66 8.73377 128.469 9.3933C128.275 10.0528 127.984 10.5986 127.589 11.0275C127.195 11.4564 126.688 11.778 126.075 11.9859C125.458 12.1939 124.723 12.3011 123.865 12.3011H120.225V12.2946ZM123.865 3.45428H122.031V10.6474H123.865C124.413 10.6474 124.882 10.5791 125.273 10.446C125.661 10.3127 125.984 10.0951 126.234 9.79292C126.485 9.49402 126.663 9.11389 126.776 8.65254C126.885 8.19445 126.941 7.64862 126.941 7.01833C126.941 6.38804 126.885 5.84547 126.776 5.39064C126.666 4.93578 126.485 4.5654 126.234 4.28274C125.984 3.99684 125.665 3.78892 125.273 3.65245C124.885 3.51926 124.416 3.45103 123.865 3.45103V3.45428Z" fill="#090000"/>
<path d="M129.02 12.2946L131.965 1.80383H135.529L138.459 12.2946H136.612L135.645 8.71103H131.833L130.851 12.2946H129.017H129.02ZM132.24 7.06707H135.241L133.883 2.03126H133.595L132.237 7.06707H132.24Z" fill="#090000"/>
<path d="M139.513 12.2946V1.80707H143.153C144.011 1.80707 144.746 1.91103 145.363 2.12222C145.979 2.33339 146.483 2.65503 146.877 3.09039C147.272 3.52576 147.566 4.06832 147.757 4.72461C147.951 5.37764 148.045 6.15412 148.045 7.05407C148.045 7.95404 147.948 8.73377 147.757 9.3933C147.563 10.0528 147.272 10.5986 146.877 11.0275C146.483 11.4564 145.976 11.778 145.363 11.9859C144.746 12.1939 144.011 12.3011 143.153 12.3011H139.513V12.2946ZM143.153 3.45428H141.319V10.6474H143.153C143.701 10.6474 144.17 10.5791 144.562 10.446C144.95 10.3127 145.272 10.0951 145.522 9.79292C145.773 9.49402 145.951 9.11389 146.064 8.65254C146.173 8.19445 146.23 7.64862 146.23 7.01833C146.23 6.38804 146.173 5.84547 146.064 5.39064C145.954 4.93578 145.773 4.5654 145.522 4.28274C145.272 4.00009 144.953 3.78892 144.562 3.65245C144.173 3.51926 143.704 3.45103 143.153 3.45103V3.45428Z" fill="#090000"/>
<path d="M81.1611 28.7438V18.2531H88.1778V19.9003H82.9669V22.8212H87.7458V24.4715H82.9669V28.7438H81.1611Z" fill="#090000"/>
<path d="M88.9287 18.2531H96.0331V19.871H93.3759V27.1259H96.0331V28.7437H88.9287V27.1259H91.5859V19.871H88.9287V18.2531Z" fill="#090000"/>
<path d="M97.3477 28.7437V18.2531H99.1534V27.0967H103.917V28.7437H97.3477Z" fill="#090000"/>
<path d="M112.304 28.7437H108.796L107.021 18.4772H106.762V28.7437H104.956V18.2531H108.652L110.426 28.5196H110.686L112.445 18.2531H116.141V28.7437H114.335V18.4772H114.076L112.301 28.7437H112.304Z" fill="#090000"/>
<path d="M81.1611 34.7023H88.2653V36.3204H85.6083V43.5751H88.2653V45.1931H81.1611V43.5751H83.8181V36.3204H81.1611V34.7023Z" fill="#090000"/>
<path d="M94.8188 45.1899L91.6704 34.9233H91.3824V45.1899H89.5767V34.6991H93.3322L96.4808 44.9657H96.7686V34.6991H98.5743V45.1899H94.8188Z" fill="#090000"/>
<path d="M100.205 37.4737C100.205 37.0156 100.283 36.5997 100.443 36.2294C100.602 35.859 100.837 35.5439 101.15 35.2839C101.463 35.024 101.839 34.8258 102.277 34.6829C102.715 34.5432 103.209 34.4749 103.757 34.4749C104.971 34.4749 105.885 34.7512 106.499 35.3003C107.115 35.8492 107.481 36.7135 107.597 37.8928H105.835C105.76 37.243 105.563 36.7785 105.253 36.499C104.94 36.2196 104.452 36.0799 103.788 36.0799C103.181 36.0799 102.727 36.2002 102.424 36.4405C102.12 36.6811 101.97 37.0254 101.97 37.4737C101.97 37.6946 102.017 37.8798 102.114 38.0293C102.211 38.1787 102.361 38.3087 102.571 38.4192C102.777 38.5296 103.044 38.6303 103.372 38.718C103.701 38.8089 104.086 38.9033 104.527 39.0039C105.103 39.1338 105.629 39.2769 106.101 39.4393C106.574 39.5985 106.971 39.8 107.3 40.0371C107.629 40.2776 107.876 40.5733 108.045 40.9305C108.214 41.2846 108.295 41.7331 108.295 42.2724C108.295 43.2827 107.963 44.0592 107.3 44.6018C106.636 45.1476 105.654 45.4173 104.355 45.4173C103.613 45.4173 102.975 45.3425 102.443 45.1932C101.907 45.0438 101.457 44.8131 101.091 44.5043C100.724 44.1957 100.44 43.8026 100.239 43.3283C100.039 42.854 99.9013 42.2853 99.8357 41.6259H101.61C101.657 42.0059 101.742 42.3341 101.861 42.6069C101.979 42.8799 102.152 43.1074 102.374 43.2893C102.596 43.4681 102.862 43.6011 103.175 43.6857C103.488 43.7701 103.867 43.8124 104.308 43.8124C105.069 43.8124 105.629 43.6759 105.989 43.3998C106.349 43.1268 106.53 42.7434 106.53 42.2528C106.53 41.9833 106.477 41.7654 106.37 41.5999C106.264 41.4342 106.101 41.2944 105.879 41.1743C105.657 41.0541 105.381 40.9501 105.05 40.8591C104.718 40.7682 104.336 40.6771 103.901 40.5894C103.303 40.44 102.777 40.2872 102.321 40.1313C101.864 39.9753 101.476 39.7804 101.159 39.5464C100.84 39.3126 100.602 39.03 100.446 38.6986C100.286 38.3704 100.208 37.9611 100.208 37.4704L100.205 37.4737Z" fill="#090000"/>
<path d="M111.666 45.1899V36.3463H108.361V34.6991H116.776V36.3463H113.472V45.1899H111.666Z" fill="#090000"/>
<path d="M117.471 34.7023H124.576V36.3204H121.918V43.5751H124.576V45.1931H117.471V43.5751H120.128V36.3204H117.471V34.7023Z" fill="#090000"/>
<path d="M128.572 45.1899V36.3463H125.267V34.6991H133.683V36.3463H130.378V45.1899H128.572Z" fill="#090000"/>
<path d="M134.637 34.7023H136.443L136.428 41.3561C136.437 41.7656 136.478 42.1228 136.55 42.4283C136.622 42.7336 136.744 42.9872 136.919 43.1852C137.091 43.3867 137.329 43.533 137.626 43.6272C137.927 43.7214 138.296 43.7701 138.737 43.7701C139.179 43.7701 139.567 43.7214 139.864 43.6272C140.164 43.533 140.399 43.3834 140.578 43.1852C140.756 42.9872 140.881 42.7336 140.953 42.4283C141.025 42.1228 141.063 41.7656 141.063 41.3561V34.7023H142.868V41.3561C142.868 42.7044 142.549 43.7182 141.917 44.3972C141.282 45.0762 140.221 45.4173 138.74 45.4173C137.26 45.4173 136.23 45.0762 135.592 44.3972C134.957 43.7182 134.64 42.7044 134.64 41.3561V34.7023H134.637Z" fill="#090000"/>
<path d="M147.109 45.1899V36.3463H143.804V34.6991H152.22V36.3463H148.915V45.1899H147.109Z" fill="#090000"/>
<path d="M153.271 45.1899V34.6991H160V36.3171H155.046V39.1339H159.565V40.7519H155.046V43.5686H160V45.1866H153.271V45.1899Z" fill="#090000"/>
<path d="M1.27063 46.4374C0.569596 46.4374 0 45.8463 0 45.1184V22.9836C0 22.3988 0.369298 21.8854 0.907597 21.7197L69.1807 0.614698C69.5658 0.494488 69.9852 0.572463 70.3044 0.82263C70.6266 1.0728 70.8146 1.46592 70.8146 1.88503L70.6799 31.3592C70.6454 38.7701 61.726 39.5529 57.4384 39.93C47.2233 40.8234 38.6386 41.3334 29.935 40.8916C24.4614 40.6154 13.0725 40.0371 12.2651 31.9864C12.118 25.914 22.0733 21.8887 25.1279 20.8002C25.6162 20.6183 26.1201 20.446 26.627 20.2804C31.3152 18.7469 40.3943 16.5409 48.547 18.9743C50.1055 19.439 55.332 21.2616 57.1662 25.1732C57.8076 26.5476 57.8797 28.0128 57.3695 29.4132C56.6779 31.3106 54.9565 32.974 52.6376 33.9812C49.1165 35.5114 44.3283 36.3886 39.155 36.4536C30.5954 36.5672 28.7801 33.1332 28.4547 31.0831C27.9571 27.935 30.511 24.3773 34.1476 23.1557C38.191 21.7976 41.9279 23.7307 44.1468 28.3377C44.4597 28.9908 44.2062 29.7835 43.5771 30.1084C42.9513 30.4333 42.1845 30.1701 41.8716 29.5203C39.6431 24.8906 36.5667 25.118 34.93 25.6671C32.5671 26.4598 30.6769 28.8382 30.9646 30.6542C31.2871 32.6914 34.354 33.8608 39.1236 33.8122C43.9777 33.7505 48.4281 32.948 51.6549 31.5444C53.3073 30.8265 54.5529 29.6827 54.9879 28.4775C55.2508 27.7529 55.2131 27.0479 54.8751 26.3267C53.9769 24.4098 51.2166 22.5157 47.8428 21.5084C40.3348 19.2635 31.8035 21.3492 27.3875 22.795C26.9088 22.9511 26.436 23.1166 25.9635 23.2889C19.216 25.6996 14.7344 29.1241 14.797 31.8174C15.3697 37.5095 25.6599 38.0326 30.0541 38.2568C38.6197 38.6888 47.1042 38.1885 57.2192 37.2982C62.8745 36.8045 68.1136 35.7388 68.1324 31.3463L68.2606 3.6492L2.54126 23.968V43.7993H8.25288C12.4028 43.7928 22.111 43.7928 32.8737 43.7897C46.1748 43.7897 61.0939 43.7832 69.1307 43.7733C69.8317 43.7733 70.4014 44.3615 70.4014 45.0924C70.4014 45.8201 69.8349 46.4115 69.1307 46.4147C61.0906 46.4246 46.1748 46.4278 32.8707 46.4309C22.1077 46.4309 12.4028 46.4342 8.24974 46.4407H1.27063V46.4374Z" fill="black"/>
</g>
<defs>
<clipPath id="clip0_16_2">
<rect width="160" height="47" fill="white"/>
</clipPath>
</defs>
</svg>
