<svg width="63" height="63" viewBox="0 0 63 63" fill="none" xmlns="http://www.w3.org/2000/svg">
<path d="M22.365 5C10.0327 5 0 15.0327 0 27.365C0 39.6973 10.0327 49.73 22.365 49.73C26.2526 49.73 30.0615 48.7117 33.4183 46.799C34.5738 48.3344 36.1424 49.2537 37.3164 49.7694C35.5429 50.9202 33.5741 51.8445 31.4446 52.5182C31.1132 52.6228 30.9297 52.9774 31.0349 53.3094C31.1199 53.5778 31.3676 53.7487 31.6354 53.7487C31.6977 53.7487 31.7618 53.7393 31.8248 53.7192C34.3611 52.9173 36.684 51.7736 38.7401 50.3255C39.377 50.9994 41.7396 53.26 44.8937 53.3845C44.9913 53.3883 45.0906 53.3906 45.1927 53.3906C47.8393 53.3906 51.975 51.9906 52.3146 43.3697C52.6271 35.4405 49.5977 31.1387 49.4685 30.9592C49.3488 30.7929 49.1521 30.711 48.9517 30.6971C48.7464 30.699 48.5564 30.8014 48.4399 30.9703C47.8297 31.8525 46.0455 32.4111 44.0139 32.9427C44.4799 31.1265 44.73 29.2575 44.73 27.365C44.73 15.0327 34.6973 5 22.365 5ZM22.365 6.26C22.3997 6.26 22.4337 6.26229 22.4684 6.26246C26.3646 9.2164 29.3149 12.9434 31.1407 17.1164C28.5219 17.8153 25.6545 18.1997 22.68 18.2251V15.395C22.68 15.2211 22.5389 15.08 22.365 15.08C22.1911 15.08 22.05 15.2211 22.05 15.395V18.2251C19.134 18.2002 16.3212 17.8311 13.7443 17.1583C15.535 12.9684 18.4373 9.22649 22.2739 6.26246C22.3045 6.26233 22.3345 6.26 22.365 6.26ZM21.2059 6.29322C17.5909 9.25527 14.8527 12.9225 13.1291 16.9946C10.4976 16.2468 8.13754 15.1728 6.19541 13.8212C9.83749 9.48003 15.1895 6.62069 21.2059 6.29322ZM23.5499 6.29445C29.5558 6.62871 34.8977 9.48626 38.5346 13.8212C36.6305 15.1462 34.3248 16.2034 31.7547 16.9491C29.9983 12.8958 27.2175 9.24529 23.5499 6.29445ZM22.365 7.52C22.1911 7.52 22.05 7.66112 22.05 7.835V9.095C22.05 9.26888 22.1911 9.41 22.365 9.41C22.5389 9.41 22.68 9.26888 22.68 9.095V7.835C22.68 7.66112 22.5389 7.52 22.365 7.52ZM22.365 10.67C22.1911 10.67 22.05 10.8111 22.05 10.985V13.505C22.05 13.6789 22.1911 13.82 22.365 13.82C22.5389 13.82 22.68 13.6789 22.68 13.505V10.985C22.68 10.8111 22.5389 10.67 22.365 10.67ZM5.7992 14.3122C7.78736 15.7025 10.1996 16.8092 12.8879 17.5803C11.7066 20.5675 11.0679 23.7606 11.0336 27.05H9.45C9.27612 27.05 9.135 27.1911 9.135 27.365C9.135 27.5389 9.27612 27.68 9.45 27.68H11.0361C11.08 31.0327 11.7528 34.2834 12.9876 37.3183C10.3036 38.0771 7.8906 39.1668 5.89641 40.5409C3.06074 37.0036 1.33917 32.539 1.26738 27.68H2.835C3.00888 27.68 3.15 27.5389 3.15 27.365C3.15 27.1911 3.00888 27.05 2.835 27.05H1.26738C1.33834 22.247 3.02167 17.8298 5.7992 14.3122ZM38.9308 14.3122C41.7083 17.8298 43.3917 22.247 43.4626 27.05H33.908C33.873 23.7428 33.2153 20.5335 31.9996 17.5323C34.6247 16.7634 36.9821 15.6752 38.9308 14.3122ZM31.3868 17.7021C32.5903 20.6487 33.2427 23.801 33.278 27.05H22.68V18.8551C25.7396 18.8294 28.6914 18.43 31.3868 17.7021ZM13.5019 17.744C16.1547 18.4449 19.0501 18.8299 22.05 18.8551V27.05H11.6636C11.6982 23.8166 12.3316 20.6784 13.5019 17.744ZM4.725 27.05C4.55112 27.05 4.41 27.1911 4.41 27.365C4.41 27.5389 4.55112 27.68 4.725 27.68H7.245C7.41888 27.68 7.56 27.5389 7.56 27.365C7.56 27.1911 7.41888 27.05 7.245 27.05H4.725ZM11.6661 27.68H22.05V36.073C19.0884 36.0972 16.2271 36.4712 13.6016 37.1546C12.3776 34.1729 11.7103 30.9768 11.6661 27.68ZM22.68 27.68H33.2756C33.2302 30.9942 32.5433 34.2073 31.2834 37.2026C28.5904 36.4839 25.667 36.1004 22.68 36.0743V27.68ZM33.9056 27.68H43.4589C43.4308 29.5938 43.1493 31.4843 42.6161 33.3069C39.2387 34.1633 35.368 35.2091 33.3359 37.8375C32.8639 37.6735 32.3833 37.5203 31.8937 37.3786C33.167 34.327 33.8607 31.0548 33.9056 27.68ZM48.9013 32.4751C49.705 33.9874 51.2781 37.6956 51.0571 43.3205C50.824 49.228 48.7304 52.2479 44.9441 52.1257C41.9122 52.0062 39.6201 49.4245 39.5423 49.335C41.3783 47.8884 42.8613 46.2652 44.0557 44.6051C44.0853 44.591 46.3747 43.4821 49.3381 44.6679C49.3765 44.683 49.4159 44.69 49.455 44.69C49.5797 44.69 49.6981 44.6154 49.7466 44.4919C49.8115 44.3312 49.7338 44.147 49.5719 44.0821C47.4314 43.226 45.6507 43.4605 44.6463 43.7339C47.8873 38.8027 48.7257 33.8499 48.9013 32.4751ZM48.2171 32.7754C48.0172 34.1037 47.4239 37.0624 45.8017 40.4227C45.0359 37.7234 43.405 36.6027 43.3297 36.5529C43.1855 36.4565 42.9905 36.4966 42.8941 36.6403C42.7977 36.7839 42.836 36.9788 42.9803 37.0759C42.9979 37.0885 44.7718 38.3164 45.3662 41.2853C44.569 42.7943 43.5713 44.3452 42.2974 45.8282C41.732 44.3398 40.8821 42.9195 39.7589 41.6028C39.6449 41.4698 39.4464 41.4549 39.3147 41.5671C39.1824 41.6805 39.1663 41.879 39.279 42.0113C40.433 43.365 41.2851 44.8289 41.8212 46.3622C40.9655 47.298 39.9997 48.199 38.9074 49.0348C38.8775 49.0262 38.8792 49.028 38.8447 49.0176C38.8157 49.0089 38.7896 48.9925 38.7598 48.988C37.369 48.5565 32.9934 46.8107 33.187 41.8981C33.3823 36.9425 38.5977 35.6229 43.2005 34.4574C45.1872 33.9548 46.9786 33.4957 48.2171 32.7754ZM22.05 36.703V48.2227C18.3963 45.3438 15.6053 41.7527 13.8428 37.7403C16.3928 37.0848 19.1719 36.7266 22.05 36.703ZM22.68 36.7043C25.5812 36.7301 28.4206 37.0982 31.0373 37.7883C29.238 41.7871 26.3958 45.3652 22.68 48.235V36.7043ZM13.2288 37.904C14.9741 41.9174 17.715 45.5263 21.308 48.4442C15.3053 48.1465 9.95807 45.3256 6.29754 41.0269C8.24482 39.6935 10.6042 38.6386 13.2288 37.904ZM31.6477 37.963C32.0894 38.0897 32.5235 38.2264 32.9507 38.3715C32.3549 39.3249 31.9816 40.4646 31.927 41.8488C31.8659 43.3963 32.1954 44.6772 32.7391 45.7359C29.9008 47.341 26.7234 48.2645 23.4564 48.4331C27.0921 45.5312 29.8711 41.9482 31.6477 37.963ZM36.9128 39.0249C36.7921 39.0021 36.6635 39.0521 36.5917 39.1603C36.4953 39.3045 36.536 39.5007 36.6803 39.5971C36.6853 39.6002 37.2037 39.9497 37.9194 40.6036C37.9798 40.6591 38.0548 40.6861 38.131 40.6861C38.2167 40.6861 38.3024 40.6514 38.3636 40.5827C38.4814 40.4548 38.4712 40.2551 38.3426 40.1373C37.5892 39.4487 37.0512 39.0874 37.0285 39.0729C36.9923 39.0487 36.9531 39.0325 36.9128 39.0249Z" fill="#09C791"/>
</svg>
