<svg width="255" height="70" viewBox="0 0 255 70" fill="none" xmlns="http://www.w3.org/2000/svg">
<path d="M2.02758 69.995C0.908914 69.995 0 69.0929 0 67.9826V34.212C0 33.3198 0.589296 32.5366 1.44827 32.2838L110.393 0.0845729C111.007 -0.098828 111.677 0.0201347 112.186 0.401807C112.7 0.783479 113 1.38325 113 2.02268L112.785 46.9906C112.73 58.297 98.4973 59.4916 91.6555 60.0666C75.355 61.4297 61.6563 62.2079 47.7679 61.5338C39.0334 61.1125 20.8601 60.2302 19.5716 47.9473C19.3369 38.683 35.2229 32.5416 40.0971 30.8811C40.8762 30.6035 41.6802 30.3408 42.4892 30.088C49.9703 27.7484 64.458 24.3827 77.4674 28.0954C79.9545 28.8042 88.2945 31.5849 91.221 37.5529C92.2448 39.6496 92.3597 41.8851 91.5456 44.0215C90.4419 46.9163 87.6952 49.4541 83.9947 50.9907C78.3764 53.3254 70.7355 54.6637 62.4804 54.7628C48.8217 54.9363 45.9251 49.697 45.4058 46.5693C44.6117 41.7662 48.6868 36.3385 54.4899 34.4747C60.9422 32.4028 66.9051 35.3521 70.4458 42.3808C70.9452 43.3771 70.5407 44.5866 69.5369 45.0822C68.5381 45.5779 67.3146 45.1764 66.8152 44.1851C63.2594 37.1217 58.3503 37.4686 55.7384 38.3063C51.9679 39.5158 48.9515 43.1441 49.411 45.915C49.9254 49.0229 54.8195 50.8073 62.4304 50.733C70.1762 50.6388 77.2777 49.4145 82.4265 47.2731C85.0634 46.1777 87.051 44.4329 87.7452 42.5939C88.1647 41.4886 88.1047 40.413 87.5654 39.3126C86.1321 36.3881 81.7274 33.4982 76.3438 31.9616C64.3631 28.5365 50.7494 31.7188 43.7028 33.9245C42.9387 34.1625 42.1846 34.4152 41.4305 34.678C30.6634 38.3559 23.5119 43.5803 23.6118 47.6895C24.5257 56.3738 40.9461 57.1718 47.9577 57.5139C61.6264 58.1731 75.1652 57.4098 91.3059 56.0516C100.33 55.2982 108.69 53.6724 108.72 46.9708L108.925 4.71421L4.05516 35.7139V65.9701H13.1693C19.7914 65.9602 35.2828 65.9602 52.4573 65.9553C73.682 65.9553 97.4885 65.9454 110.313 65.9305C111.432 65.9305 112.341 66.8277 112.341 67.9429C112.341 69.0533 111.437 69.9554 110.313 69.9603C97.4835 69.9752 73.682 69.9802 52.4523 69.9851C35.2779 69.9851 19.7914 69.9901 13.1643 70H2.02758V69.995Z" fill="#090000"/>
<path d="M128.949 17.9603V1.90942H134.155C135.239 1.90942 136.149 1.99892 136.875 2.1829C137.601 2.36688 138.183 2.63539 138.631 2.98346C139.073 3.3365 139.391 3.7691 139.585 4.27628C139.774 4.78844 139.874 5.37519 139.874 6.03154C139.874 6.50392 139.794 6.94647 139.645 7.34923C139.491 7.752 139.237 8.11001 138.884 8.4183C138.531 8.72162 138.084 8.96029 137.532 9.12935C136.98 9.29842 136.313 9.38295 135.538 9.38295V9.84041C136.622 9.84041 137.532 9.91997 138.268 10.0791C139.003 10.2382 139.59 10.4818 140.033 10.8051C140.475 11.1233 140.789 11.5211 140.973 11.9835C141.156 12.4509 141.251 12.9879 141.251 13.5995C141.251 14.3007 141.156 14.9222 140.963 15.4592C140.769 15.9962 140.45 16.4487 140.008 16.8217C139.565 17.1996 138.979 17.478 138.253 17.6719C137.527 17.8609 136.622 17.9603 135.538 17.9603H128.949ZM131.818 8.44316H134.155C134.692 8.44316 135.14 8.40338 135.508 8.3288C135.876 8.25421 136.169 8.13487 136.393 7.97078C136.617 7.80669 136.771 7.60282 136.86 7.34923C136.955 7.09564 137 6.79729 137 6.44425C137 6.09121 136.955 5.76801 136.86 5.51441C136.771 5.26082 136.612 5.05695 136.393 4.89286C136.174 4.72877 135.876 4.61441 135.508 4.53485C135.14 4.46026 134.692 4.42048 134.155 4.42048H131.818V8.44316ZM131.818 15.4393H135.533C136.07 15.4393 136.517 15.3946 136.885 15.3101C137.253 15.2255 137.547 15.0913 137.77 14.9073C137.989 14.7233 138.148 14.4896 138.238 14.2062C138.327 13.9228 138.377 13.5846 138.377 13.1868C138.377 12.789 138.327 12.4708 138.238 12.1874C138.143 11.904 137.989 11.6703 137.77 11.4863C137.547 11.3023 137.253 11.168 136.885 11.0835C136.517 10.999 136.07 10.9542 135.533 10.9542H131.818V15.4393Z" fill="#090000"/>
<path d="M141.838 17.9603L146.517 1.90444H152.18L156.834 17.9603H153.901L152.364 12.4758H146.308L144.747 17.9603H141.833H141.838ZM151.723 9.95974L149.565 2.25251H149.107L146.949 9.95974H151.723Z" fill="#090000"/>
<path d="M157.277 9.93491C157.277 7.12053 157.879 5.02217 159.087 3.63985C160.295 2.25752 162.09 1.56635 164.477 1.56635C166.57 1.56635 168.206 2.08348 169.375 3.11277C170.543 4.14703 171.23 5.70837 171.429 7.80175H168.45C168.281 6.50395 167.873 5.55919 167.232 4.96748C166.59 4.38073 165.67 4.08239 164.477 4.08239C163.055 4.08239 161.976 4.55974 161.245 5.51444C160.509 6.46914 160.146 7.94098 160.146 9.92994C160.146 11.9189 160.479 13.3311 161.146 14.3106C161.812 15.2902 162.871 15.7775 164.323 15.7775C164.949 15.7775 165.481 15.693 165.919 15.5239C166.352 15.3548 166.705 15.0913 166.973 14.7333C167.242 14.3753 167.436 13.9029 167.57 13.3211C167.699 12.7393 167.774 12.0283 167.789 11.188H162.304V8.66695H167.257C168.4 8.66695 169.335 8.93546 170.056 9.46751C170.777 10.0045 171.284 10.815 171.593 11.899L173.358 17.9554H170.031L169.136 12.4957H168.679C168.664 14.4548 168.286 15.9068 167.545 16.8664C166.804 17.8211 165.656 18.2985 164.094 18.2985C162.995 18.2985 162.021 18.1145 161.17 17.7466C160.32 17.3786 159.609 16.8416 159.037 16.1305C158.465 15.4195 158.028 14.5443 157.73 13.5051C157.431 12.4659 157.282 11.2725 157.282 9.92497L157.277 9.93491Z" fill="#090000"/>
<path d="M185.49 11.1929H177.624V17.9603H174.755V1.90942H177.624V8.67686H185.49V1.90942H188.36V17.9653H185.49V11.1929Z" fill="#090000"/>
<path d="M191.015 1.90942H196.798C198.16 1.90942 199.329 2.06854 200.308 2.39174C201.288 2.71495 202.088 3.20722 202.715 3.87352C203.341 4.53982 203.809 5.37021 204.112 6.37464C204.415 7.37907 204.57 8.5625 204.57 9.93985C204.57 11.3172 204.415 12.5106 204.112 13.52C203.804 14.5294 203.341 15.3648 202.715 16.0211C202.088 16.6775 201.283 17.1697 200.308 17.488C199.329 17.8062 198.16 17.9703 196.798 17.9703H191.015V1.90942ZM196.798 4.43043H193.884V15.4393H196.798C197.668 15.4393 198.414 15.3349 199.035 15.131C199.652 14.9272 200.164 14.594 200.562 14.1316C200.96 13.6741 201.243 13.0924 201.422 12.3863C201.596 11.6852 201.686 10.8498 201.686 9.88516C201.686 8.92051 201.596 8.09012 201.422 7.39398C201.248 6.69785 200.96 6.13099 200.562 5.69839C200.164 5.26082 199.657 4.94259 199.035 4.73375C198.419 4.52988 197.673 4.42546 196.798 4.42546V4.43043Z" fill="#090000"/>
<path d="M204.987 17.9603L209.666 1.90444H215.33L219.984 17.9603H217.05L215.514 12.4758H209.457L207.896 17.9603H204.982H204.987ZM214.872 9.95974L212.714 2.25251H212.257L210.099 9.95974H214.872Z" fill="#090000"/>
<path d="M221.66 1.90942H227.443C228.805 1.90942 229.974 2.06854 230.953 2.39174C231.933 2.71495 232.733 3.20722 233.36 3.87352C233.986 4.53982 234.454 5.37021 234.757 6.37464C235.065 7.37409 235.215 8.5625 235.215 9.93985C235.215 11.3172 235.06 12.5106 234.757 13.52C234.449 14.5294 233.986 15.3648 233.36 16.0211C232.733 16.6775 231.928 17.1697 230.953 17.488C229.974 17.8062 228.805 17.9703 227.443 17.9703H221.66V1.90942ZM227.443 4.43043H224.529V15.4393H227.443C228.313 15.4393 229.059 15.3349 229.68 15.131C230.297 14.9272 230.809 14.594 231.207 14.1316C231.605 13.6741 231.888 13.0924 232.067 12.3863C232.241 11.6852 232.331 10.8498 232.331 9.88516C232.331 8.92051 232.241 8.09012 232.067 7.39398C231.893 6.69785 231.605 6.13099 231.207 5.69839C230.809 5.26579 230.302 4.94259 229.68 4.73375C229.064 4.52988 228.318 4.42546 227.443 4.42546V4.43043Z" fill="#090000"/>
<path d="M128.949 43.1357V27.0798H140.097V29.6008H131.818V34.071H139.411V36.597H131.818V43.1357H128.949Z" fill="#090000"/>
<path d="M141.291 27.0798H152.578V29.5561H148.357V40.6595H152.578V43.1357H141.291V40.6595H145.512V29.5561H141.291V27.0798Z" fill="#090000"/>
<path d="M154.667 43.1357V27.0798H157.536V40.6147H165.104V43.1357H154.667Z" fill="#090000"/>
<path d="M178.43 43.1357H172.856L170.036 27.4229H169.624V43.1357H166.754V27.0798H172.627L175.446 42.7926H175.859L178.653 27.0798H184.526V43.1357H181.657V27.4229H181.244L178.425 43.1357H178.43Z" fill="#090000"/>
<path d="M128.949 52.2551H140.237V54.7313H136.015V65.8347H140.237V68.311H128.949V65.8347H133.171V54.7313H128.949V52.2551Z" fill="#090000"/>
<path d="M150.649 68.306L145.647 52.5932H145.189V68.306H142.32V52.2501H148.287L153.289 67.9629H153.747V52.2501H156.616V68.306H150.649Z" fill="#090000"/>
<path d="M159.206 56.4966C159.206 55.7955 159.331 55.159 159.584 54.5921C159.838 54.0253 160.211 53.543 160.708 53.1452C161.205 52.7474 161.802 52.4441 162.498 52.2253C163.194 52.0115 163.98 51.907 164.85 51.907C166.779 51.907 168.231 52.3297 169.206 53.17C170.185 54.0104 170.767 55.333 170.951 57.138H168.152C168.032 56.1435 167.719 55.4325 167.227 55.0049C166.73 54.5772 165.954 54.3634 164.9 54.3634C163.935 54.3634 163.214 54.5474 162.732 54.9153C162.249 55.2833 162.011 55.8104 162.011 56.4966C162.011 56.8347 162.085 57.1181 162.24 57.3469C162.394 57.5756 162.632 57.7745 162.965 57.9435C163.294 58.1126 163.716 58.2667 164.238 58.401C164.761 58.5402 165.372 58.6844 166.073 58.8386C166.988 59.0375 167.824 59.2563 168.574 59.5049C169.325 59.7485 169.957 60.0568 170.479 60.4198C171.001 60.7878 171.394 61.2402 171.662 61.7872C171.931 62.3292 172.06 63.0154 172.06 63.8408C172.06 65.3872 171.533 66.5756 170.479 67.406C169.425 68.2414 167.863 68.6541 165.8 68.6541C164.621 68.6541 163.607 68.5397 162.762 68.311C161.911 68.0823 161.195 67.7292 160.614 67.2569C160.032 66.7845 159.579 66.1828 159.261 65.4568C158.943 64.7309 158.724 63.8607 158.62 62.8513H161.439C161.514 63.4331 161.648 63.9353 161.837 64.353C162.026 64.7707 162.299 65.1187 162.652 65.3972C163.005 65.6707 163.428 65.8745 163.925 66.0038C164.422 66.1331 165.024 66.1977 165.725 66.1977C166.933 66.1977 167.824 65.9889 168.395 65.5662C168.967 65.1486 169.256 64.5618 169.256 63.811C169.256 63.3983 169.171 63.0651 169.002 62.8115C168.833 62.5579 168.574 62.3441 168.221 62.1601C167.868 61.9762 167.431 61.817 166.904 61.6778C166.377 61.5386 165.77 61.3994 165.079 61.2651C164.129 61.0364 163.294 60.8027 162.568 60.564C161.842 60.3253 161.225 60.027 160.723 59.669C160.216 59.311 159.838 58.8784 159.589 58.3712C159.336 57.869 159.211 57.2424 159.211 56.4916L159.206 56.4966Z" fill="#090000"/>
<path d="M177.415 68.306V54.7711H172.164V52.2501H185.535V54.7711H180.284V68.306H177.415Z" fill="#090000"/>
<path d="M186.639 52.2551H197.926V54.7313H193.705V65.8347H197.926V68.311H186.639V65.8347H190.861V54.7313H186.639V52.2551Z" fill="#090000"/>
<path d="M204.276 68.306V54.7711H199.025V52.2501H212.396V54.7711H207.145V68.306H204.276Z" fill="#090000"/>
<path d="M213.913 52.2551H216.782L216.757 62.4386C216.772 63.0651 216.837 63.6121 216.951 64.0795C217.065 64.5469 217.259 64.9347 217.538 65.238C217.811 65.5463 218.189 65.7701 218.661 65.9143C219.139 66.0585 219.725 66.1331 220.427 66.1331C221.128 66.1331 221.744 66.0585 222.217 65.9143C222.694 65.7701 223.067 65.5414 223.35 65.238C223.634 64.9347 223.833 64.5469 223.947 64.0795C224.061 63.6121 224.121 63.0651 224.121 62.4386V52.2551H226.99V62.4386C226.99 64.5021 226.483 66.0535 225.479 67.0927C224.469 68.132 222.784 68.6541 220.432 68.6541C218.08 68.6541 216.444 68.132 215.429 67.0927C214.42 66.0535 213.918 64.5021 213.918 62.4386V52.2551H213.913Z" fill="#090000"/>
<path d="M233.728 68.306V54.7711H228.477V52.2501H241.848V54.7711H236.597V68.306H233.728Z" fill="#090000"/>
<path d="M243.518 68.306V52.2501H254.209V54.7264H246.338V59.0374H253.518V61.5137H246.338V65.8248H254.209V68.301H243.518V68.306Z" fill="#090000"/>
</svg>
