<svg width="44" height="44" viewBox="0 0 44 44" fill="none" xmlns="http://www.w3.org/2000/svg">
<path d="M40.3333 0C38.3066 0 36.6667 1.63997 36.6667 3.66667C36.6667 4.14648 36.724 4.61914 36.8958 5.04167L32.5417 9.39583C32.1191 9.22396 31.6465 9.16667 31.1667 9.16667C30.3789 9.16667 29.6484 9.43164 29.0469 9.85417L25.6094 7.79167C25.6309 7.64128 25.6667 7.49089 25.6667 7.33333C25.6667 5.30664 24.0267 3.66667 22 3.66667C19.9733 3.66667 18.3333 5.30664 18.3333 7.33333C18.3333 7.66992 18.362 7.99935 18.4479 8.30729L14.5521 11.4583C14.0365 11.1862 13.4564 11 12.8333 11C10.8066 11 9.16667 12.64 9.16667 14.6667C9.16667 14.8242 9.20247 14.9746 9.22396 15.125L5.72917 17.1302C5.14193 16.7363 4.42578 16.5 3.66667 16.5C1.63997 16.5 0 18.14 0 20.1667C0 22.1934 1.63997 23.8333 3.66667 23.8333C5.69336 23.8333 7.33333 22.1934 7.33333 20.1667C7.33333 19.9733 7.30469 19.7799 7.27604 19.5938L10.6562 17.5885C11.265 18.0397 12.0169 18.3333 12.8333 18.3333C14.86 18.3333 16.5 16.6934 16.5 14.6667C16.5 14.3301 16.4714 14.0007 16.3854 13.6927L20.2812 10.5417C20.7969 10.8138 21.377 11 22 11C22.7878 11 23.5182 10.735 24.1198 10.3125L27.5573 12.375C27.5358 12.5254 27.5 12.6758 27.5 12.8333C27.5 14.86 29.14 16.5 31.1667 16.5C33.1934 16.5 34.8333 14.86 34.8333 12.8333C34.8333 12.3535 34.776 11.8809 34.6042 11.4583L38.9583 7.10417C39.3809 7.27604 39.8535 7.33333 40.3333 7.33333C42.36 7.33333 44 5.69336 44 3.66667C44 1.63997 42.36 0 40.3333 0ZM36.6667 20.1667V44H44V20.1667H36.6667ZM18.3333 23.8333V44H25.6667V23.8333H18.3333ZM27.5 27.5V44H34.8333V27.5H27.5ZM9.16667 29.3333V44H16.5V29.3333H9.16667ZM0 33V44H7.33333V33H0Z" fill="#09C791"/>
</svg>
