<svg width="95" height="98" viewBox="0 0 95 98" fill="none" xmlns="http://www.w3.org/2000/svg">
<path d="M44.52 0.23999C15.6019 0.23999 0 21.44 0 41.3812C0 51.9812 4.13234 60.0555 8.14875 67.8812C11.5855 74.5725 14.84 80.8828 14.84 88.0212V97.76H65.72V91.4H69.695C79.177 91.4 86.92 83.657 86.92 74.175V65.2312L91.0275 63.5087C92.8411 62.7469 94.2241 61.2645 94.87 59.4012C95.5159 57.538 95.3669 55.4925 94.4063 53.77L85.7275 38.135C82.6634 13.697 68.0388 0.23999 44.52 0.23999ZM44.52 25.68C55.062 25.68 63.6 34.218 63.6 44.76C63.6 52.1055 59.418 58.4655 53.3313 61.6537C52.2878 63.5087 51.4266 65.5211 51.0788 68.08H38.0275C37.688 65.5459 36.7439 63.5087 35.7088 61.6537C29.5972 58.4737 25.44 52.122 25.44 44.76C25.44 34.218 33.978 25.68 44.52 25.68ZM39.22 42.64C37.4644 42.64 36.04 44.0644 36.04 45.82C36.04 47.5756 37.4644 49 39.22 49C40.3214 49 41.2986 48.4534 41.87 47.6087C42.193 47.9814 42.4 48.4534 42.4 49V63.84H46.64V49C46.64 48.4534 46.847 47.9814 47.17 47.6087C47.7414 48.4534 48.7186 49 49.82 49C51.5756 49 53 47.5756 53 45.82C53 44.0644 51.5756 42.64 49.82 42.64H48.76C47.1369 42.64 45.6463 43.2776 44.52 44.2962C43.3938 43.2776 41.9031 42.64 40.28 42.64H39.22ZM38.16 72.32H50.88V74.44C50.88 76.1625 49.8366 77.62 48.3625 78.2825C47.7 79.7565 46.2425 80.8 44.52 80.8C42.7975 80.8 41.34 79.7565 40.6775 78.2825C39.2034 77.62 38.16 76.1625 38.16 74.44V72.32Z" fill="#09C791"/>
</svg>
