<svg width="106" height="98" viewBox="0 0 106 98" fill="none" xmlns="http://www.w3.org/2000/svg">
<path d="M52.8667 0C50.6219 0 48.8 1.8178 48.8 4.06667V29.6184C47.8831 30.1622 47.061 30.8544 46.4172 31.6993L2.30339 83.8115C0.884119 85.2755 0 87.2666 0 89.4667C0 93.9603 3.63967 97.6 8.13333 97.6C8.32447 97.6 8.50226 97.5566 8.68932 97.5444L8.72109 97.6H52.8667H97.0122L97.044 97.5444C97.2311 97.5566 97.4089 97.6 97.6 97.6C102.094 97.6 105.733 93.9603 105.733 89.4667C105.733 87.4252 104.956 85.5804 103.716 84.153L59.3161 31.6993C58.6723 30.8544 57.8502 30.1622 56.9333 29.6184V19.3405L75.972 12.065L75.9799 12.057C76.3592 11.9073 76.6848 11.647 76.9142 11.3099C77.1437 10.9728 77.2665 10.5745 77.2667 10.1667C77.2675 9.72228 77.1227 9.28986 76.8545 8.93556C76.5862 8.58126 76.2093 8.32459 75.7814 8.20482L54.3599 0.285937V0.301823C53.8952 0.117217 53.397 0 52.8667 0ZM52.6204 36.9574H53.1129L77.2667 65.4797L61 56.9333L52.8667 61L48.8 52.8667L32.2712 60.9762L52.6204 36.9574Z" fill="#09C791"/>
</svg>
