<svg width="60" height="60" viewBox="0 0 60 60" fill="none" xmlns="http://www.w3.org/2000/svg">
<path d="M30 0C28.026 0 26.4 1.62599 26.4 3.6C26.4 5.15179 27.4112 6.47417 28.8 6.975V15.6H31.2V6.975C32.5888 6.47417 33.6 5.15179 33.6 3.6C33.6 1.62599 31.974 0 30 0ZM30 2.4C30.6769 2.4 31.2 2.92304 31.2 3.6C31.2 4.27696 30.6769 4.8 30 4.8C29.323 4.8 28.8 4.27696 28.8 3.6C28.8 2.92304 29.323 2.4 30 2.4ZM8.39999 10.8C6.42598 10.8 4.79999 12.426 4.79999 14.4C4.79999 16.374 6.42598 18 8.39999 18C9.16697 18 9.87788 17.7503 10.4648 17.3344L16.8 21.4359V19.2C16.8 19.0284 16.8287 18.8617 16.8515 18.6961L11.8453 15.3797C11.9359 15.0658 12 14.7414 12 14.4C12 12.426 10.374 10.8 8.39999 10.8ZM51.6 10.8C49.626 10.8 48 12.426 48 14.4C48 14.7421 48.0636 15.0675 48.1547 15.382L43.1484 18.6984C43.1712 18.8628 43.2 19.0284 43.2 19.2V21.4359L49.5351 17.3344C50.1221 17.7503 50.833 18 51.6 18C53.574 18 55.2 16.374 55.2 14.4C55.2 12.426 53.574 10.8 51.6 10.8ZM8.39999 13.2C9.07694 13.2 9.59999 13.723 9.59999 14.4C9.59999 15.077 9.07694 15.6 8.39999 15.6C7.72303 15.6 7.19999 15.077 7.19999 14.4C7.19999 13.723 7.72303 13.2 8.39999 13.2ZM51.6 13.2C52.2769 13.2 52.8 13.723 52.8 14.4C52.8 15.077 52.2769 15.6 51.6 15.6C50.923 15.6 50.4 15.077 50.4 14.4C50.4 13.723 50.923 13.2 51.6 13.2ZM20.4 18C20.0817 18 19.7765 18.1265 19.5515 18.3515C19.3265 18.5765 19.2 18.8818 19.2 19.2V36C19.2 36.3183 19.3265 36.6235 19.5515 36.8485C19.7765 37.0735 20.0817 37.2 20.4 37.2H39.6C39.9182 37.2 40.2234 37.0735 40.4485 36.8485C40.6735 36.6235 40.8 36.3183 40.8 36V19.2C40.8 18.8818 40.6735 18.5765 40.4485 18.3515C40.2234 18.1265 39.9182 18 39.6 18H20.4ZM21.6 20.4H38.4V34.8H21.6V20.4ZM27.6 22.8C27.441 22.7978 27.2831 22.8271 27.1355 22.8864C26.988 22.9457 26.8537 23.0338 26.7404 23.1454C26.6272 23.2571 26.5373 23.3901 26.4759 23.5368C26.4145 23.6835 26.3829 23.841 26.3829 24C26.3829 24.159 26.4145 24.3165 26.4759 24.4632C26.5373 24.6099 26.6272 24.7429 26.7404 24.8546C26.8537 24.9662 26.988 25.0543 27.1355 25.1136C27.2831 25.1729 27.441 25.2022 27.6 25.2H32.4C32.559 25.2022 32.7169 25.1729 32.8644 25.1136C33.012 25.0543 33.1463 24.9662 33.2596 24.8546C33.3728 24.7429 33.4627 24.6099 33.5241 24.4632C33.5855 24.3165 33.6171 24.159 33.6171 24C33.6171 23.841 33.5855 23.6835 33.5241 23.5368C33.4627 23.3901 33.3728 23.2571 33.2596 23.1454C33.1463 23.0338 33.012 22.9457 32.8644 22.8864C32.7169 22.8271 32.559 22.7978 32.4 22.8H27.6ZM16.8 33.7641L10.4648 37.8656C9.87788 37.4497 9.16697 37.2 8.39999 37.2C6.42598 37.2 4.79999 38.826 4.79999 40.8C4.79999 42.774 6.42598 44.4 8.39999 44.4C10.374 44.4 12 42.774 12 40.8C12 40.4579 11.9363 40.1325 11.8453 39.818L16.8515 36.5016C16.8287 36.3372 16.8 36.1716 16.8 36V33.7641ZM43.2 33.7641V36C43.2 36.1716 43.1712 36.3383 43.1484 36.5039L48.1547 39.8203C48.064 40.1342 48 40.4586 48 40.8C48 42.774 49.626 44.4 51.6 44.4C53.574 44.4 55.2 42.774 55.2 40.8C55.2 38.826 53.574 37.2 51.6 37.2C50.833 37.2 50.1221 37.4497 49.5351 37.8656L43.2 33.7641ZM8.39999 39.6C9.07694 39.6 9.59999 40.123 9.59999 40.8C9.59999 41.477 9.07694 42 8.39999 42C7.72303 42 7.19999 41.477 7.19999 40.8C7.19999 40.123 7.72303 39.6 8.39999 39.6ZM28.8 39.6V48.225C27.4112 48.7258 26.4 50.0482 26.4 51.6C26.4 53.574 28.026 55.2 30 55.2C31.974 55.2 33.6 53.574 33.6 51.6C33.6 50.0482 32.5888 48.7258 31.2 48.225V39.6H28.8ZM51.6 39.6C52.2769 39.6 52.8 40.123 52.8 40.8C52.8 41.477 52.2769 42 51.6 42C50.923 42 50.4 41.477 50.4 40.8C50.4 40.123 50.923 39.6 51.6 39.6ZM30 50.4C30.6769 50.4 31.2 50.923 31.2 51.6C31.2 52.277 30.6769 52.8 30 52.8C29.323 52.8 28.8 52.277 28.8 51.6C28.8 50.923 29.323 50.4 30 50.4Z" fill="#09C791"/>
</svg>
