<svg width="94" height="93" viewBox="0 0 94 93" fill="none" xmlns="http://www.w3.org/2000/svg">
<path d="M93.9927 52.3139C93.5961 45.6475 89.1017 43.5254 85.8191 41.9813C84.108 41.1691 82.6245 40.4739 82.0884 39.3909C82.0077 38.3372 82.015 37.4883 82.0223 36.5224V36.376C82.9623 35.2857 83.7555 33.5075 84.13 31.8976C84.9598 31.3269 85.8264 30.1999 86.1055 27.9388C86.2377 26.7899 85.9733 25.8606 85.5473 25.1654C86.1936 22.8164 87.2144 17.7014 85.0627 14.2548C84.1227 12.74 82.6759 11.7302 80.8473 11.2984C79.6797 10.0252 77.6748 9.33732 75.0752 9.33732H75.0678C71.0361 9.4105 68.0619 10.6691 66.2259 13.0766C64.1403 15.8208 63.6923 19.8601 64.8894 25.1069C64.4414 25.8093 64.155 26.768 64.2945 27.9461C64.5736 30.2146 65.4475 31.3415 66.2773 31.9049C66.6666 33.5002 67.4817 35.2857 68.4364 36.3834V36.5297C68.4437 37.4883 68.4511 38.3372 68.3703 39.3836C68.1133 39.8519 67.5845 40.269 66.8355 40.6715C65.073 35.9004 60.9605 34.0124 57.8541 32.5855C56.0108 31.744 54.4098 31.0049 53.8884 30.017C53.8077 28.9706 53.815 28.129 53.8223 27.1631L53.8297 27.0094C54.7623 25.9191 55.5628 24.1482 55.9373 22.531C56.7598 21.9676 57.6338 20.8333 57.9055 18.5722C58.045 17.4306 57.7806 16.494 57.3547 15.7988C57.9936 13.4498 59.0144 8.3348 56.87 4.89551C55.9227 3.38075 54.4759 2.3636 52.6547 1.93186C51.7294 0.929342 50.033 0 46.8752 0C42.8361 0.0804942 39.8545 1.33181 38.0259 3.73932C35.9403 6.47612 35.4997 10.5081 36.6967 15.7403C36.2487 16.4428 35.9623 17.4014 36.1019 18.5795C36.3736 20.848 37.2475 21.9749 38.0847 22.5384C38.4666 24.1336 39.2891 25.9191 40.2364 27.0168V27.1704C40.2437 28.1364 40.2511 28.9779 40.1703 30.017C39.6489 31.0049 38.0406 31.744 36.19 32.5855C33.0689 34.0124 28.9417 35.9004 27.1719 40.6715C26.4228 40.269 25.8867 39.8519 25.637 39.3836C25.5562 38.3298 25.5636 37.481 25.5709 36.5077V36.3834C26.5183 35.2857 27.3408 33.5002 27.7227 31.9049C28.5525 31.3342 29.4264 30.2073 29.7055 27.9388C29.845 26.7606 29.5586 25.802 29.1106 25.0995C30.3077 19.8601 29.8597 15.8134 27.7741 13.0766C25.9381 10.6691 22.9639 9.4105 18.8955 9.33732C16.3178 9.33732 14.3203 10.0252 13.1527 11.2984C11.3241 11.7302 9.87734 12.7473 8.93 14.2621C6.78562 17.7014 7.80641 22.8164 8.45266 25.1654C8.02672 25.8606 7.76234 26.7972 7.89453 27.9461C8.17359 30.2073 9.04016 31.3342 9.87 31.9049C10.2445 33.5148 11.0377 35.2857 11.9777 36.376V36.5297C11.985 37.4956 11.9923 38.3445 11.9116 39.3982C11.3755 40.4739 9.88469 41.1764 8.18094 41.9813C4.89828 43.5254 0.403907 45.6475 0 52.4236V73.0301C0 73.1545 0.0146875 73.2789 0.0367188 73.4033C0.146875 73.9522 2.90812 86.1726 21.6641 92.3048C21.6641 92.3048 21.9725 92.5756 24.4033 92.861C24.3959 92.0341 24.3959 90.6583 24.4694 89.2973C25.1744 82.4553 30.7042 80.2234 34.7727 78.5769C36.9905 77.6842 39.0834 76.8353 39.7077 75.6206C39.8031 74.4644 39.7884 73.5277 39.7811 72.4667V72.2545C38.7383 71.0763 37.8277 69.0932 37.4164 67.337C36.5352 66.7589 35.5805 65.5661 35.2867 63.1074C35.1325 61.8414 35.4556 60.817 35.9403 60.0779C34.6258 54.3921 35.0958 50.0161 37.3503 47.0598C39.3111 44.484 42.5056 43.1302 46.8384 43.057C49.6511 43.057 51.7955 43.7961 53.0292 45.1718C54.9973 45.6255 56.5616 46.7086 57.5677 48.3258C59.8883 52.0504 58.75 57.6338 58.0523 60.1364C58.5223 60.8755 58.8234 61.878 58.6766 63.1147C58.3755 65.5661 57.4281 66.7589 56.5395 67.337C56.1356 69.0932 55.2544 71.069 54.2336 72.2398L54.2262 72.4667C54.2189 73.5277 54.2116 74.4571 54.2997 75.6206C54.9312 76.8426 57.0169 77.6915 59.22 78.5769C63.2958 80.2307 68.8403 82.4772 69.5013 89.2973C69.582 90.2925 69.56 92.1804 69.5453 93C71.3152 92.8024 71.4253 92.6268 71.4253 92.6268C91.0405 86.5971 93.8458 73.9741 93.9633 73.4033C93.9853 73.2789 94 73.1545 94 73.0301L93.9927 52.3139Z" fill="#09C791"/>
</svg>
