<svg width="46" height="46" viewBox="0 0 46 46" fill="none" xmlns="http://www.w3.org/2000/svg">
<path d="M44.9866 12.42C42.8735 7.17672 38.8233 3.12656 33.58 1.01344C33.3033 0.92 33.12 0.92 32.8433 1.01344C32.66 1.10328 32.4767 1.28656 32.3833 1.47344L31.4633 3.58656C29.1633 2.57672 26.68 2.02328 24.1033 1.84C24.0135 1.84 24.0135 1.84 23.92 1.84H23.8266C23.5535 1.84 23.2767 1.84 23 1.84C11.3167 1.84 1.84003 11.3167 1.84003 23C1.84003 23.2767 1.84003 23.5534 1.84003 23.8266V23.92C1.84003 24.0134 1.84003 24.0134 1.84003 24.0134C2.39346 35.2367 11.6833 44.16 23 44.16C28.52 44.16 33.4866 42.0433 37.26 38.5466L21.7135 23H3.68003C3.68003 12.3266 12.3266 3.68 23 3.68V21.7134L38.5466 37.26C42.0433 33.4866 44.16 28.52 44.16 23C44.16 20.0567 43.5167 17.2033 42.4135 14.5367L44.5266 13.6167C44.7135 13.5233 44.8967 13.34 44.9866 13.1567C45.08 12.88 45.08 12.6967 44.9866 12.42ZM40.7567 13.1567C40.7567 13.2466 40.7567 13.2466 40.7567 13.1567L27.14 18.7666L33.6735 3.03672C37.72 4.96656 41.0335 8.18656 42.8735 12.2367L40.7567 13.1567Z" fill="#09C791"/>
</svg>
