<svg width="56" height="56" viewBox="0 0 56 56" fill="none" xmlns="http://www.w3.org/2000/svg">
<path d="M25.76 0V4.58719C14.5809 5.65006 5.65252 14.5807 4.58938 25.76H0V30.24H4.58938C5.65252 41.4193 14.5809 50.3499 25.76 51.4128V56H30.24V51.4106C41.419 50.3475 50.3475 41.419 51.4106 30.24H56V25.76H51.4106C50.3475 14.581 41.419 5.65249 30.24 4.58938V0H25.76ZM30.24 9.10219C38.9827 10.1213 45.8787 17.0173 46.8978 25.76H43.68V30.24H46.8978C45.8787 38.9827 38.9827 45.8787 30.24 46.8978V43.68H25.76V46.8956C17.0199 45.8751 10.1213 38.982 9.10219 30.24H12.32V25.76H9.10219C10.1213 17.018 17.0199 10.1249 25.76 9.10437V12.32H30.24V9.10219ZM28 20.16C25.9207 20.16 23.9266 20.986 22.4563 22.4563C20.986 23.9266 20.16 25.9207 20.16 28C20.16 30.0793 20.986 32.0734 22.4563 33.5437C23.9266 35.014 25.9207 35.84 28 35.84C30.0793 35.84 32.0734 35.014 33.5437 33.5437C35.014 32.0734 35.84 30.0793 35.84 28C35.84 25.9207 35.014 23.9266 33.5437 22.4563C32.0734 20.986 30.0793 20.16 28 20.16Z" fill="white"/>
</svg>
